<?xml version="1.0" standalone="no"?>
<!DOCTYPE svg PUBLIC "-//W3C//DTD SVG 20010904//EN"
 "http://www.w3.org/TR/2001/REC-SVG-20010904/DTD/svg10.dtd">
<svg version="1.0" xmlns="http://www.w3.org/2000/svg"
 width="1772.000000pt" height="1772.000000pt" viewBox="0 0 1772.000000 1772.000000"
 preserveAspectRatio="xMidYMid meet">

<g transform="translate(0.000000,1772.000000) scale(0.100000,-0.100000)"
fill="#000000" stroke="none">
<path d="M8394 16829 c-19 -24 -24 -52 -14 -89 9 -36 37 -138 85 -315 15 -55
36 -138 45 -185 10 -47 28 -128 39 -180 12 -52 30 -152 41 -222 10 -70 24
-146 30 -168 6 -21 28 -145 50 -274 22 -129 46 -266 54 -303 9 -37 27 -149 41
-248 14 -99 30 -205 35 -235 12 -73 51 -317 55 -344 13 -102 30 -218 52 -364
14 -95 23 -175 20 -179 -11 -11 -138 13 -272 51 -71 20 -157 44 -190 53 -33 9
-82 29 -110 44 -27 15 -70 34 -95 42 -25 9 -58 22 -75 31 -16 8 -77 27 -135
42 -58 15 -117 33 -132 40 -52 27 -75 18 -248 -94 -30 -20 -142 -73 -249 -119
-107 -46 -204 -90 -216 -97 -29 -19 -157 -70 -240 -96 -74 -23 -216 -80 -275
-109 -51 -26 -255 -88 -325 -100 -33 -5 -80 -17 -105 -26 -25 -9 -81 -23 -125
-32 -99 -18 -449 -40 -501 -31 -77 13 -413 0 -529 -21 -60 -12 -116 -21 -123
-21 -7 0 -24 -11 -37 -25 -20 -19 -25 -34 -25 -72 0 -65 24 -187 61 -313 17
-58 42 -157 55 -220 14 -64 45 -160 68 -215 91 -214 113 -291 121 -446 4 -57
10 -108 15 -114 5 -6 20 -53 34 -105 13 -52 39 -135 56 -185 17 -49 35 -122
40 -161 5 -39 18 -93 28 -120 11 -27 23 -78 27 -114 4 -36 13 -83 19 -105 20
-67 9 -87 -61 -110 -103 -34 -114 -51 -118 -184 -2 -101 -10 -125 -65 -206
-15 -22 -58 -89 -96 -150 -38 -60 -96 -141 -129 -179 -33 -38 -78 -92 -100
-120 -22 -28 -56 -67 -75 -87 -19 -19 -66 -82 -104 -140 -38 -57 -75 -108 -83
-112 -7 -4 -13 -13 -13 -20 0 -7 -25 -48 -56 -91 l-56 -80 6 -85 c3 -47 10
-149 16 -226 26 -328 19 -561 -21 -710 -12 -44 -22 -94 -24 -111 -2 -18 -8
-40 -14 -50 -14 -23 -10 24 21 231 18 124 20 167 14 385 -3 135 -10 295 -15
355 -18 203 -22 335 -11 335 5 0 10 -13 10 -29 0 -16 7 -35 17 -42 15 -13 16
-11 10 21 -4 19 -16 107 -27 194 -11 88 -29 196 -40 240 -10 45 -28 133 -40
196 -33 188 -58 320 -80 415 -11 50 -29 140 -40 200 -11 61 -35 187 -54 280
-37 187 -80 444 -96 573 -5 46 -12 88 -16 94 -10 16 -6 85 6 107 8 16 7 29 -5
57 -18 45 -19 41 5 47 11 3 22 17 26 33 3 16 26 88 50 160 41 123 54 194 37
194 -5 0 -24 -17 -43 -36 -57 -59 -86 -67 -163 -45 -108 30 -137 59 -137 137
0 40 13 69 34 77 12 5 13 -4 9 -47 -7 -66 5 -88 60 -115 33 -16 59 -21 104
-19 l59 3 87 98 c101 114 106 123 123 202 6 33 22 99 35 147 27 107 19 146
-44 215 -52 56 -95 84 -167 108 -30 10 -71 26 -90 36 -19 11 -40 19 -46 19
-15 0 -39 29 -31 37 4 3 28 -2 54 -12 26 -9 59 -18 73 -20 39 -5 135 -43 175
-70 20 -14 42 -25 50 -25 8 0 15 -4 15 -10 0 -39 57 63 111 200 10 25 29 69
43 97 28 56 33 102 15 134 -8 15 -14 18 -24 9 -9 -8 -14 -7 -18 4 -3 8 -1 17
6 20 7 4 -10 4 -36 2 -63 -5 -83 -24 -198 -193 -49 -73 -94 -133 -100 -133
-20 0 4 418 30 515 11 38 23 90 26 115 4 25 24 72 44 104 30 50 36 69 39 130
3 61 1 75 -18 99 -16 20 -30 27 -48 25 -22 -3 -36 -24 -104 -158 -112 -222
-128 -264 -139 -377 -22 -220 -84 -443 -142 -512 -14 -17 -33 -52 -42 -78 -9
-26 -30 -83 -46 -126 -16 -43 -29 -84 -29 -90 0 -7 -14 -41 -30 -75 -28 -59
-30 -72 -30 -172 0 -60 9 -169 19 -242 11 -73 21 -158 21 -188 1 -30 6 -78 11
-106 7 -38 6 -85 -6 -175 -9 -71 -13 -144 -10 -172 12 -81 7 -217 -10 -315 -9
-52 -14 -96 -12 -99 3 -2 1 -19 -4 -36 -17 -57 -48 -376 -59 -602 -14 -298
-28 -559 -41 -745 -6 -88 -9 -335 -6 -570 4 -385 8 -512 22 -680 4 -36 7 -96
9 -135 3 -79 52 -451 66 -505 5 -19 16 -84 25 -145 16 -112 25 -150 75 -309
l27 -88 -33 -30 c-51 -46 -149 -221 -187 -333 -59 -171 -96 -297 -108 -370 -6
-38 -17 -99 -25 -135 -8 -36 -21 -103 -29 -150 -8 -47 -23 -139 -35 -205 -11
-66 -27 -176 -36 -244 -8 -68 -22 -155 -30 -195 -15 -74 -20 -101 -79 -456
-67 -404 -109 -627 -175 -935 -16 -71 -36 -179 -45 -240 -10 -60 -26 -137 -36
-170 -22 -73 -55 -217 -69 -305 -6 -36 -24 -123 -40 -195 -15 -71 -31 -150
-35 -175 -15 -101 -97 -499 -115 -560 -11 -36 -31 -110 -44 -165 -56 -229
-106 -404 -143 -500 -59 -153 -350 -415 -573 -516 -35 -16 -105 -56 -155 -88
-50 -33 -136 -83 -190 -112 -55 -28 -131 -71 -170 -94 -38 -23 -102 -59 -142
-79 -40 -19 -107 -57 -150 -82 -43 -25 -104 -59 -135 -75 -31 -16 -76 -42
-100 -59 -24 -17 -68 -47 -98 -66 -114 -74 -180 -162 -180 -239 0 -23 11 -46
36 -77 56 -66 87 -82 168 -85 39 -1 98 -5 131 -8 41 -5 79 -2 120 9 33 8 95
22 137 31 116 24 268 92 339 153 21 18 62 43 92 57 39 17 105 69 223 176 93
83 192 175 219 203 94 96 470 453 545 518 41 36 106 85 144 108 37 24 108 76
157 115 49 40 99 79 111 87 21 14 22 23 25 169 4 232 28 417 92 699 11 47 29
126 40 177 25 112 45 180 76 253 13 30 29 82 35 115 7 32 34 116 60 185 27 69
69 186 94 261 24 75 57 163 71 195 15 32 42 100 60 150 18 50 42 109 54 132
12 23 21 47 21 55 0 8 26 68 59 133 85 172 132 274 186 399 26 61 57 130 70
155 13 25 33 67 45 93 12 27 32 60 44 75 30 36 146 259 146 280 0 9 22 82 49
162 50 150 89 280 116 385 9 33 20 141 26 240 6 99 14 188 18 198 5 16 11 14
46 -18 48 -44 168 -135 245 -186 30 -20 82 -60 115 -88 95 -82 275 -214 338
-250 31 -18 65 -40 74 -49 17 -18 41 -33 140 -91 32 -18 72 -46 88 -61 17 -16
94 -62 171 -103 78 -41 154 -84 170 -95 16 -11 63 -41 104 -67 41 -26 95 -62
120 -79 25 -16 79 -53 120 -81 111 -74 206 -142 288 -204 41 -31 88 -65 105
-75 39 -24 198 -127 330 -214 54 -35 140 -86 190 -112 51 -26 110 -57 132 -69
22 -12 83 -40 135 -62 52 -22 109 -47 125 -54 17 -7 64 -20 105 -29 41 -9 98
-23 125 -31 80 -23 180 -36 183 -25 4 12 32 13 32 2 0 -5 -7 -58 -16 -118 -9
-60 -18 -125 -20 -144 -9 -85 -28 -192 -55 -301 -16 -66 -45 -192 -64 -281
-58 -265 -123 -524 -170 -673 -24 -77 -64 -212 -90 -300 -26 -88 -52 -168 -57
-179 -6 -10 -18 -76 -29 -146 -10 -70 -23 -139 -29 -154 -16 -42 -33 -388 -27
-551 7 -205 43 -366 113 -511 26 -53 68 -98 169 -180 69 -56 107 -76 185 -99
51 -15 63 -15 155 0 206 33 463 190 665 406 63 67 191 192 284 277 149 135
191 181 341 371 95 120 282 350 416 512 380 457 774 987 893 1201 21 38 43 71
50 75 17 11 53 65 196 298 68 110 167 265 220 345 203 302 300 460 376 612 50
100 122 213 130 206 2 -2 -4 -24 -12 -48 -12 -34 -14 -64 -9 -125 6 -70 12
-86 42 -128 37 -50 95 -87 137 -87 13 0 27 -7 30 -16 5 -13 9 -14 21 -4 8 7
30 12 49 12 66 0 138 46 231 148 48 52 98 110 112 130 13 19 44 62 68 95 24
33 61 87 81 120 21 33 56 85 79 115 23 30 50 70 60 87 11 18 25 33 31 33 24 0
94 148 94 198 0 13 -5 32 -11 44 -6 11 -17 105 -25 210 -8 105 -17 194 -20
199 -3 5 -5 181 -5 392 0 319 -3 391 -16 437 -33 114 -95 170 -189 170 -41 0
-51 -4 -83 -39 -68 -73 -99 -121 -127 -198 -27 -74 -33 -82 -172 -219 -79 -78
-149 -145 -155 -148 -7 -3 -22 -13 -35 -22 -23 -17 -23 -17 -18 7 3 13 13 60
22 103 8 44 31 127 50 184 19 58 41 128 48 156 8 28 26 94 41 146 31 112 67
215 94 269 11 21 29 72 39 113 11 41 30 108 42 149 27 91 63 226 91 339 11 47
32 130 46 185 14 55 32 132 40 172 11 49 19 70 28 67 17 -7 106 -119 137 -174
14 -25 47 -67 73 -95 26 -27 60 -66 76 -86 16 -20 59 -55 97 -77 68 -40 69
-41 172 -41 113 -1 223 14 255 35 11 7 43 18 70 25 86 21 158 54 233 105 109
74 179 113 287 158 30 13 70 48 114 102 l24 29 10 -25 c5 -14 9 -37 8 -52 -3
-51 47 -154 97 -200 47 -43 75 -59 287 -158 61 -28 117 -58 125 -65 8 -8 51
-28 95 -46 44 -17 91 -39 105 -48 14 -10 41 -24 60 -31 19 -7 60 -25 90 -40
80 -39 159 -52 292 -48 l116 3 48 40 c60 52 123 170 133 253 7 53 19 98 71
272 28 93 77 318 100 461 32 197 101 581 150 834 11 55 29 130 40 167 20 65
22 68 61 78 22 6 82 31 134 56 138 67 169 105 300 367 98 198 108 214 153 245
273 188 270 186 293 237 21 48 59 272 59 351 0 35 -12 80 -40 152 -22 55 -40
106 -40 111 0 6 21 42 46 81 25 40 59 99 76 133 16 34 41 82 54 107 29 55 32
154 9 305 -15 98 -16 101 -60 143 -24 24 -53 64 -65 90 -12 26 -31 66 -43 89
-21 43 -21 43 -2 90 27 68 30 151 9 215 -25 78 -89 175 -158 241 -58 55 -60
59 -42 72 10 8 24 16 30 18 6 2 8 8 3 12 -10 11 -553 12 -596 1 -33 -8 -34 -8
-27 19 7 26 6 27 -26 23 -19 -3 -56 3 -87 13 -30 11 -62 19 -73 19 -15 0 -18
8 -18 48 -1 49 -35 113 -74 136 -10 6 -31 23 -46 38 -55 54 -180 39 -235 -28
-13 -16 -44 -31 -90 -43 -57 -16 -77 -27 -110 -63 -35 -37 -43 -53 -54 -115
-14 -82 -10 -115 25 -176 l23 -43 -20 -33 c-15 -24 -23 -30 -32 -22 -9 7 -29
2 -71 -19 -67 -34 -90 -36 -146 -14 -29 12 -53 34 -89 83 -61 83 -75 110 -94
191 -21 85 -24 145 -8 164 9 11 10 20 4 29 -6 6 -16 30 -23 51 -8 26 -41 68
-94 123 -44 46 -90 98 -101 116 -71 114 -115 142 -210 132 -75 -8 -79 -14 -69
-102 7 -65 18 -79 33 -40 13 31 67 87 85 87 10 0 13 -6 10 -15 -4 -8 -10 -15
-15 -15 -12 0 -57 -72 -65 -104 -12 -47 -64 -62 -64 -18 0 15 -6 48 -14 73 -8
25 -12 56 -9 70 7 39 -13 81 -38 77 -15 -2 -25 -17 -38 -56 -21 -63 -22 -63
-57 -67 -16 -1 -35 -13 -44 -26 -8 -13 -30 -43 -47 -66 -41 -53 -42 -67 -5
-59 26 6 26 6 8 -9 -11 -8 -25 -15 -32 -15 -7 0 -30 -24 -51 -52 -21 -29 -55
-72 -75 -96 -39 -45 -47 -67 -26 -74 8 -3 2 -15 -16 -33 -22 -22 -30 -25 -36
-14 -7 11 -12 10 -28 -4 -22 -20 -43 -22 -60 -5 -19 19 -27 0 -9 -20 10 -10
17 -33 17 -51 0 -19 4 -30 10 -26 14 9 12 -1 -6 -36 -27 -52 3 -81 41 -39 10
11 24 20 32 20 23 0 14 -29 -14 -47 -16 -10 -32 -22 -36 -28 -6 -7 -10 -6 -14
3 -9 22 -21 13 -29 -20 l-7 -33 -12 45 c-11 38 -14 42 -21 25 -5 -11 -9 -69
-9 -130 0 -83 4 -118 17 -143 14 -28 15 -34 2 -46 -8 -8 -14 -24 -14 -36 0
-12 -11 -69 -25 -126 -14 -57 -25 -109 -24 -116 1 -7 0 -20 -3 -28 -3 -8 -10
-31 -17 -50 -105 -304 -136 -475 -112 -627 10 -67 24 -194 23 -223 0 -8 7 -85
15 -170 20 -216 19 -311 -3 -345 -10 -16 -18 -49 -20 -83 -1 -31 -7 -95 -14
-141 -10 -67 -10 -107 0 -201 7 -65 10 -134 6 -153 -7 -36 -53 -97 -166 -220
-30 -33 -47 -57 -37 -54 30 11 16 -18 -54 -112 -38 -49 -55 -86 -79 -165 -17
-55 -35 -112 -40 -126 -5 -14 -14 -50 -19 -80 -5 -30 -17 -98 -26 -150 -19
-111 -15 -325 9 -505 18 -129 20 -175 6 -175 -5 0 -10 2 -10 5 0 2 -7 53 -15
112 -28 198 -40 366 -33 443 29 313 76 485 183 664 27 46 28 49 8 44 -20 -5
-21 -3 -16 46 10 101 -21 210 -117 411 -16 33 -43 94 -60 135 -18 41 -38 82
-44 90 -7 8 -24 36 -39 61 -14 25 -39 60 -54 76 -15 17 -32 38 -38 46 -5 8
-18 25 -27 39 -23 31 -24 57 -5 143 9 39 16 104 16 146 0 42 7 110 16 150 33
162 47 295 55 524 8 238 13 297 51 550 10 72 24 179 29 239 6 60 13 113 16
117 2 4 9 31 15 61 8 41 6 82 -7 181 -16 117 -20 130 -40 137 -26 10 -114 21
-349 45 -88 9 -194 20 -235 25 -41 5 -115 10 -165 9 -56 0 -128 8 -190 21 -84
18 -119 21 -220 16 -97 -5 -140 -2 -225 14 -58 11 -170 28 -250 37 -80 9 -147
17 -149 19 -3 3 34 73 116 219 38 67 93 153 141 219 48 66 69 103 96 167 15
37 47 97 72 135 38 60 59 107 106 236 6 15 52 72 102 128 91 99 96 106 200
319 11 24 43 62 70 85 142 119 160 140 211 256 55 127 94 169 181 197 43 13
73 35 158 116 61 57 121 124 141 158 20 32 49 67 64 78 15 11 86 39 157 61
174 56 206 93 149 171 -81 113 -103 209 -108 489 -4 191 -9 220 -47 240 -39
21 -110 -34 -254 -196 -45 -50 -107 -129 -138 -175 -31 -47 -87 -120 -123
-163 -37 -42 -90 -115 -118 -161 -29 -46 -92 -132 -142 -191 -79 -93 -139
-169 -237 -294 -45 -59 -105 -191 -149 -326 -75 -234 -91 -267 -277 -559 -53
-83 -151 -284 -167 -341 -44 -159 -83 -261 -152 -394 -42 -80 -84 -157 -94
-171 -24 -34 -65 -151 -73 -209 -4 -24 -11 -49 -16 -55 -11 -13 -134 9 -247
43 -37 11 -85 24 -105 27 -52 8 -61 29 -42 96 12 41 17 122 19 329 3 151 9
311 15 355 12 91 16 239 12 470 -4 180 8 330 40 503 17 92 22 168 25 352 3
213 6 247 32 366 40 178 61 455 40 510 -41 108 -136 2 -215 -239 -30 -93 -38
-139 -50 -272 -15 -178 -47 -302 -110 -422 -51 -99 -78 -197 -118 -428 -60
-347 -64 -366 -102 -465 -69 -181 -75 -208 -88 -460 l-13 -235 -46 -115 c-25
-63 -51 -134 -58 -157 -14 -48 -10 -47 -78 -31 -37 8 -51 16 -51 28 0 51 -22
281 -31 320 -14 59 -13 333 0 440 6 47 10 148 10 225 -1 77 1 158 4 180 3 22
13 85 22 141 15 90 15 112 2 215 -16 120 -15 150 18 494 8 93 13 181 10 195
-2 14 -9 129 -15 257 -10 248 -24 364 -48 401 -12 18 -22 22 -50 20 -56 -5
-66 -32 -106 -303 -20 -132 -45 -290 -56 -351 -10 -62 -20 -161 -21 -220 -1
-126 -28 -299 -65 -415 -34 -108 -61 -300 -80 -558 -11 -162 -20 -227 -35
-270 -32 -87 -76 -302 -89 -434 -12 -125 -17 -147 -31 -147 -9 0 -14 111 -10
210 4 104 -18 398 -34 441 -8 24 -24 85 -35 134 -10 50 -26 124 -36 165 -12
57 -16 119 -15 257 1 158 -2 190 -19 235 -51 141 -66 289 -41 398 15 64 13
149 -5 281 -28 202 -31 261 -22 414 7 126 16 180 55 338 33 133 43 191 35 199
-5 5 -59 12 -118 14 -61 3 -127 11 -153 20 -65 23 -332 32 -347 13z m1011
-2903 c4 -27 13 -63 20 -80 6 -17 11 -47 10 -66 -7 -107 -7 -138 -1 -167 9
-37 9 -37 -48 -22 -120 31 -118 30 -112 62 3 15 23 79 45 140 21 62 44 134 51
160 15 56 25 48 35 -27z m810 2 c3 -29 8 -98 10 -153 3 -55 12 -155 21 -223 9
-67 14 -126 10 -129 -9 -9 -83 -5 -121 7 -16 5 -47 12 -67 15 -34 5 -38 9 -38
34 0 15 9 36 19 45 24 22 67 108 80 161 5 22 15 76 21 120 12 89 37 175 50
175 5 0 11 -24 15 -52z m-2193 -62 c51 -14 112 -34 135 -45 23 -12 48 -21 56
-21 7 0 22 -7 33 -15 10 -8 25 -15 32 -15 7 0 31 -9 55 -19 57 -26 197 -71
222 -71 11 -1 38 -9 60 -20 22 -11 54 -20 70 -20 17 -1 46 -6 65 -13 19 -7 51
-14 70 -15 19 -1 57 -8 85 -15 l50 -12 7 -50 c21 -134 29 -261 34 -489 4 -232
6 -251 25 -283 19 -30 22 -51 23 -166 1 -73 -2 -142 -8 -155 -7 -18 -5 -25 10
-37 10 -8 22 -15 25 -15 3 0 17 25 30 55 19 43 27 54 41 49 23 -7 25 24 2 33
-13 5 -15 14 -9 47 3 23 9 75 12 116 3 54 12 87 29 116 32 56 43 127 54 334 5
96 14 195 20 220 6 25 13 62 17 83 6 38 6 39 42 32 20 -4 41 -11 47 -16 6 -5
32 -12 58 -15 60 -9 58 -5 136 -280 11 -39 29 -83 40 -96 26 -33 37 -93 39
-207 1 -56 8 -107 17 -129 12 -30 13 -45 3 -91 -7 -31 -16 -60 -21 -66 -4 -5
-8 -15 -8 -23 0 -18 50 -7 67 14 7 10 19 13 31 10 11 -4 23 -2 27 4 3 5 16 10
28 10 12 0 28 9 35 20 7 11 19 20 27 20 8 0 15 7 15 16 0 10 -6 14 -15 10 -23
-8 -18 11 7 28 28 20 36 20 40 1 2 -12 7 -11 27 4 l24 18 -27 5 c-31 6 -105
-30 -121 -58 -19 -35 -45 -45 -45 -18 0 30 51 189 75 237 14 26 25 64 25 85 0
27 11 55 40 100 22 33 40 65 40 69 0 4 14 52 32 106 31 94 34 98 58 93 31 -6
117 -23 189 -37 l54 -11 -7 -64 c-4 -39 -1 -114 8 -187 8 -67 20 -231 26 -364
6 -134 15 -257 21 -275 5 -18 9 -87 9 -154 0 -127 7 -184 21 -184 16 0 55 74
66 125 31 137 36 247 20 396 -26 226 -27 279 -13 353 8 39 14 115 15 170 1 55
4 103 7 108 8 13 46 9 130 -13 136 -36 148 -39 184 -39 62 -1 62 -4 35 -131
-14 -62 -32 -128 -39 -145 -8 -17 -22 -80 -31 -140 -9 -60 -26 -143 -37 -184
-11 -41 -24 -113 -28 -160 -5 -47 -22 -148 -39 -225 -41 -190 -46 -221 -31
-230 16 -10 47 21 60 61 7 19 16 34 21 34 5 0 9 9 9 19 0 19 35 39 47 27 3 -3
30 13 60 35 30 22 68 45 86 51 43 14 59 28 53 45 -4 8 2 13 15 13 12 0 33 6
47 14 15 7 47 24 72 37 25 13 66 34 92 48 45 23 66 47 52 60 -3 3 -17 -7 -30
-24 -21 -27 -29 -30 -74 -28 -46 1 -50 -1 -45 -18 7 -22 2 -24 -25 -7 -16 10
-22 8 -41 -16 -16 -20 -28 -26 -43 -22 -15 4 -33 -4 -56 -25 -19 -16 -53 -38
-75 -49 -22 -11 -53 -32 -70 -45 -35 -29 -49 -32 -42 -7 3 9 21 74 40 143 19
69 40 136 47 149 6 12 18 61 25 109 25 168 43 251 97 454 12 49 26 93 29 99 7
11 338 -18 372 -33 36 -15 229 -43 282 -40 149 7 236 3 308 -13 52 -12 95 -16
127 -12 31 4 68 1 106 -10 43 -11 113 -17 252 -19 106 -1 195 -5 199 -8 3 -3
-11 -20 -32 -38 -39 -34 -95 -116 -119 -173 -8 -19 -34 -65 -59 -103 -24 -37
-61 -102 -82 -143 -30 -60 -57 -94 -136 -170 -89 -86 -103 -105 -150 -200 -28
-58 -73 -135 -100 -171 -26 -36 -57 -85 -67 -110 -11 -24 -46 -80 -79 -123
l-59 -79 -174 -3 c-106 -3 -194 -10 -228 -18 -70 -19 -625 -19 -822 -1 -74 7
-191 16 -260 19 -107 6 -190 15 -300 31 -14 2 -74 7 -135 10 -60 3 -117 8
-125 10 -14 3 -157 16 -525 45 -71 6 -148 16 -170 22 -122 32 -498 164 -550
192 -83 44 -226 98 -360 136 -105 30 -273 85 -290 95 -45 28 -330 103 -402
106 -54 3 -229 54 -383 113 -36 13 -101 38 -145 54 -117 43 -238 94 -255 107
-8 6 -26 16 -40 22 -69 31 -237 117 -251 129 -8 8 -19 14 -24 14 -9 0 -109 74
-134 98 -8 8 -49 31 -90 52 -42 20 -94 47 -116 58 -22 11 -58 28 -80 37 -22 9
-85 39 -140 66 -55 27 -108 49 -118 49 -16 0 -34 7 -77 31 -8 5 -36 20 -61 33
-48 26 -75 51 -62 59 4 2 51 3 103 0 175 -8 354 -8 450 0 238 19 297 26 331
41 20 8 60 18 90 21 30 4 70 12 89 20 57 21 141 45 161 45 10 0 20 4 24 9 3 5
20 12 38 16 17 4 75 27 127 52 52 25 120 52 150 60 53 13 124 42 260 106 36
16 94 40 128 54 35 13 80 32 100 42 21 11 64 28 97 39 33 11 125 54 205 95 90
48 157 76 177 77 18 0 74 -11 125 -24z m1735 -523 c-12 -63 -40 -167 -43 -158
-1 6 -4 49 -7 98 l-5 87 30 0 c28 0 30 -2 25 -27z m4321 -61 c2 -7 -3 -12 -12
-12 -9 0 -16 7 -16 16 0 17 22 14 28 -4z m1322 -77 c9 -8 26 -15 37 -15 31 0
50 -27 35 -51 -18 -29 -15 -36 18 -31 38 6 38 -8 -1 -53 -38 -43 -55 -44 -64
-4 -4 18 -28 51 -61 82 -43 43 -52 57 -47 76 5 20 10 22 36 17 17 -3 38 -13
47 -21z m-10315 -25 c3 -5 14 -10 24 -10 10 0 35 -11 55 -25 20 -14 49 -28 64
-31 15 -4 39 -16 54 -28 85 -66 119 -86 164 -96 28 -6 81 -26 119 -45 38 -19
72 -35 76 -35 5 0 36 -13 71 -29 35 -16 101 -46 148 -66 105 -45 162 -78 209
-120 34 -31 123 -80 386 -213 113 -58 338 -147 610 -242 131 -46 138 -48 332
-85 126 -24 248 -58 393 -110 36 -13 117 -40 180 -60 217 -68 245 -78 345
-125 55 -26 122 -53 149 -59 27 -7 69 -22 95 -35 25 -13 62 -27 81 -31 19 -4
89 -25 155 -46 127 -42 255 -62 475 -74 63 -4 160 -13 215 -20 96 -13 191 -21
338 -30 81 -5 205 -23 267 -40 28 -8 97 -11 184 -9 77 1 147 -1 155 -6 44 -23
720 -30 886 -10 124 16 346 32 352 26 3 -3 0 -40 -7 -83 -13 -84 -17 -205 -8
-321 3 -40 1 -112 -3 -160 -16 -167 -22 -289 -24 -527 -2 -247 -15 -450 -29
-473 -4 -7 -14 -11 -22 -8 -7 3 -16 1 -19 -4 -3 -4 0 -10 6 -12 19 -6 1 -43
-32 -67 l-32 -24 5 32 c4 29 3 30 -13 15 -14 -13 -20 -13 -38 -2 -18 11 -25
10 -48 -4 -24 -15 -28 -23 -26 -60 2 -35 1 -39 -7 -20 -12 28 -34 30 -25 2 4
-11 2 -20 -4 -20 -6 0 -11 -6 -11 -13 0 -7 -8 -17 -19 -24 -10 -6 -21 -24 -24
-40 -4 -19 -19 -38 -48 -56 l-42 -28 6 68 c3 37 10 88 16 113 5 25 14 72 20
105 28 173 33 202 42 230 6 17 16 66 24 110 8 44 26 145 40 225 14 80 32 190
40 245 8 55 26 163 40 240 34 192 50 304 43 311 -4 3 -21 7 -39 7 -29 2 -35
-3 -49 -33 -30 -66 -91 -355 -125 -595 -9 -66 -25 -160 -36 -210 -10 -49 -28
-135 -38 -190 -11 -55 -24 -118 -30 -140 -6 -22 -20 -100 -31 -174 -12 -74
-24 -141 -29 -150 -4 -9 -14 -54 -21 -101 -7 -47 -17 -94 -23 -105 -15 -31
-59 -75 -76 -75 -8 0 -21 -7 -30 -15 -45 -42 -126 -105 -136 -105 -7 0 -20 -9
-30 -20 -17 -19 -17 -19 16 -10 18 5 64 28 103 50 38 22 73 37 77 33 11 -11
34 -101 28 -107 -17 -18 -491 -256 -537 -270 -14 -5 -27 -2 -37 7 -8 9 -20 17
-27 19 -10 4 -10 13 0 45 17 59 15 116 -6 144 -47 61 -166 300 -219 439 -13
36 -56 129 -94 206 -38 78 -69 148 -69 156 0 8 -4 18 -9 24 -10 10 -78 168
-116 272 -13 35 -28 68 -33 75 -12 15 -132 317 -132 333 0 6 -7 17 -15 24 -8
7 -15 22 -15 34 0 11 -7 30 -15 40 -8 11 -15 26 -15 34 0 8 -25 67 -56 130
-77 160 -122 202 -157 151 -21 -29 -7 -77 66 -232 20 -43 37 -81 37 -84 0 -4
21 -58 46 -122 42 -104 66 -161 109 -256 8 -16 21 -52 30 -79 8 -26 24 -67 35
-90 10 -23 25 -60 34 -82 33 -88 89 -223 116 -282 17 -34 30 -67 30 -74 0 -6
29 -70 64 -142 59 -121 116 -254 172 -401 12 -33 31 -80 42 -104 15 -33 19
-57 15 -91 -4 -34 0 -58 16 -92 11 -26 21 -51 21 -56 0 -10 -31 -24 -95 -42
-22 -6 -62 -17 -90 -25 -97 -27 -211 -49 -270 -51 -33 -1 -85 -7 -115 -13 -30
-7 -107 -11 -170 -11 -399 4 -701 9 -707 13 -5 3 -57 8 -118 11 -195 11 -259
17 -290 26 -16 5 -91 23 -165 40 -74 18 -173 45 -220 62 -47 16 -114 37 -150
48 -90 25 -120 38 -120 50 0 5 -12 10 -27 10 -16 0 -42 8 -58 18 -17 10 -55
28 -85 40 -107 40 -149 62 -144 76 3 7 1 24 -5 38 -13 34 2 58 26 41 10 -7 34
-20 53 -30 48 -23 167 -101 175 -114 8 -11 107 -59 125 -59 6 0 21 -6 33 -12
12 -7 47 -18 77 -25 30 -6 89 -21 130 -33 41 -11 108 -26 150 -34 41 -8 118
-23 170 -35 143 -31 433 -65 540 -64 52 0 147 5 210 10 63 5 122 6 131 2 33
-16 193 -18 259 -4 141 31 316 65 335 66 11 0 30 8 43 18 23 20 29 41 12 41
-5 0 -10 -4 -10 -10 0 -18 -24 -10 -44 14 -20 25 -22 24 -66 -16 -10 -9 -35
-20 -54 -24 -29 -5 -36 -3 -36 10 0 12 -9 15 -40 14 -22 -1 -40 -5 -40 -10 0
-4 7 -8 15 -8 8 0 15 -4 15 -10 0 -5 -19 -10 -42 -10 -40 0 -41 1 -22 16 18
15 18 15 -12 10 -17 -3 -36 0 -42 6 -7 7 -14 3 -23 -13 -23 -45 -59 -53 -59
-14 0 22 -3 24 -32 21 -18 -3 -35 -5 -38 -6 -3 -1 -25 -2 -50 -2 -25 0 -51 -4
-57 -10 -7 -6 -43 -12 -80 -14 -38 -2 -95 -6 -128 -8 -38 -2 -63 1 -67 8 -5 7
-11 5 -20 -6 -20 -27 -99 -29 -213 -6 -55 11 -145 23 -200 28 -55 5 -167 23
-250 40 -82 18 -170 35 -195 40 -25 4 -83 20 -130 34 -47 15 -116 36 -155 48
-38 11 -72 24 -75 28 -7 10 -241 136 -267 144 -46 14 -24 31 42 33 52 1 85 -5
163 -33 53 -19 117 -42 142 -50 25 -8 53 -19 63 -25 86 -48 395 -102 553 -97
86 3 89 4 89 27 0 22 -8 25 -185 61 -102 21 -205 43 -230 50 -25 6 -63 16 -85
22 -80 21 -141 41 -192 64 -28 13 -58 24 -65 24 -7 0 -43 10 -80 21 -48 16
-68 27 -68 38 0 10 -4 21 -8 26 -5 6 -15 62 -22 125 -6 63 -16 142 -21 175 -5
33 -15 113 -24 178 -8 65 -19 135 -24 155 -9 35 -27 161 -37 267 -13 128 -24
209 -43 325 -25 157 -52 344 -62 435 -4 39 -12 91 -18 117 -28 127 -64 264
-71 273 -4 6 -10 27 -14 47 -8 42 -4 42 59 8 17 -9 62 -24 100 -34 39 -10 79
-24 90 -30 11 -7 52 -24 90 -40 39 -15 88 -36 110 -46 57 -28 429 -141 525
-161 19 -3 62 -14 95 -24 33 -9 87 -22 120 -27 72 -11 85 -14 105 -21 24 -8
212 -37 240 -37 15 0 30 -4 36 -10 10 -10 49 -15 102 -12 34 2 88 44 78 61 -8
12 -142 53 -191 58 -22 2 -60 7 -85 12 -25 5 -70 14 -100 20 -30 6 -86 18
-125 27 -94 21 -200 43 -255 53 -53 10 -324 88 -348 101 -10 4 -46 18 -82 31
-36 12 -69 26 -75 29 -5 4 -26 11 -45 15 -19 4 -45 15 -57 25 -12 9 -51 28
-85 40 -35 13 -67 27 -72 32 -6 4 -19 8 -29 8 -10 0 -56 18 -102 39 -45 22
-99 43 -120 47 -20 3 -44 15 -54 25 -9 10 -31 22 -48 25 -26 5 -33 2 -43 -16
-10 -18 -9 -33 4 -74 81 -262 85 -274 111 -411 50 -259 63 -335 68 -400 7 -89
26 -227 47 -340 10 -55 19 -120 19 -144 1 -25 13 -119 27 -210 33 -212 42
-286 54 -445 5 -71 10 -137 11 -145 6 -66 0 -79 -47 -97 -25 -9 -58 -33 -74
-52 -22 -27 -32 -33 -50 -27 -18 6 -21 4 -13 -9 4 -8 6 -41 3 -73 -5 -56 -6
-58 -33 -56 -24 2 -161 63 -298 134 -20 11 -43 19 -51 19 -8 0 -34 14 -56 30
-23 17 -45 30 -48 30 -4 0 -28 16 -54 35 -26 19 -52 35 -57 35 -5 0 -22 14
-38 30 -16 17 -34 30 -40 30 -22 0 -33 44 -24 91 4 24 8 47 9 51 0 3 12 20 26
37 21 26 27 46 35 128 9 91 6 303 -7 418 -16 152 -27 230 -45 315 -11 52 -25
120 -31 150 -6 30 -22 98 -36 150 -13 52 -28 113 -32 136 -5 22 -16 58 -24 80
-9 21 -22 66 -30 99 -74 304 -179 595 -261 724 -104 166 -210 312 -262 363
-48 47 -195 174 -248 214 -74 56 -372 244 -388 244 -9 0 -23 -8 -32 -17 -24
-23 -12 -125 24 -206 16 -34 31 -75 35 -92 10 -49 88 -328 97 -350 34 -80 67
-203 99 -360 6 -33 16 -79 21 -103 5 -24 14 -88 19 -142 5 -54 17 -131 25
-172 9 -40 27 -125 40 -188 13 -63 29 -128 35 -145 5 -16 14 -59 19 -95 5 -36
14 -83 20 -105 5 -22 16 -76 24 -120 8 -44 18 -88 23 -99 4 -11 3 -17 -3 -15
-10 4 -105 113 -177 202 l-38 48 10 83 c6 46 9 92 7 102 -3 10 -10 64 -16 119
-6 55 -12 112 -14 127 -2 14 -8 41 -14 60 -5 18 -12 44 -15 58 -8 48 -27 115
-41 145 -8 17 -26 71 -40 120 -15 50 -37 126 -50 170 -13 44 -24 98 -23 120 3
74 -31 219 -80 345 -64 162 -102 283 -102 324 0 19 -22 107 -50 197 -55 181
-73 299 -47 299 9 0 19 -4 22 -10z m8985 -94 c0 -21 17 -81 31 -108 5 -10 9
-27 9 -39 0 -11 13 -34 29 -50 17 -16 38 -39 48 -52 20 -23 33 -33 98 -68 22
-11 42 -24 45 -28 5 -6 33 -26 89 -63 16 -11 45 -18 74 -18 47 0 64 -13 55
-41 -3 -8 -10 -6 -22 6 -15 15 -23 16 -52 7 -20 -6 -79 -8 -139 -6 -121 6
-162 -7 -171 -56 -4 -16 -17 -39 -30 -51 -13 -12 -24 -31 -24 -41 0 -32 -106
-167 -137 -174 -16 -3 -47 -17 -70 -30 -23 -13 -44 -20 -47 -15 -6 10 56 61
74 61 20 0 89 49 113 82 27 36 67 119 67 139 0 7 7 20 16 30 15 17 59 127 71
176 4 17 -5 32 -39 63 -73 66 -100 126 -105 234 -3 66 -2 87 6 76 6 -8 11 -24
11 -34z m1167 19 c15 -8 40 -17 55 -20 50 -10 81 -59 59 -94 -7 -11 -15 -11
-47 -1 -87 28 -123 56 -124 96 0 37 14 42 57 19z m-73 -21 c13 -33 3 -50 -49
-87 -54 -37 -54 -37 -69 -16 -13 19 -12 25 12 65 20 32 31 42 44 38 10 -3 18
-1 18 5 0 17 37 13 44 -5z m376 -34 c0 -5 -12 -17 -27 -27 -16 -10 -36 -28
-46 -40 -17 -21 -47 -32 -47 -17 0 12 21 44 30 44 5 0 20 11 34 25 25 25 56
33 56 15z m70 -40 c0 -5 -7 -10 -16 -10 -8 0 -12 5 -9 10 3 6 10 10 16 10 5 0
9 -4 9 -10z m-1750 -40 c0 -5 -4 -10 -10 -10 -5 0 -10 5 -10 10 0 6 5 10 10
10 6 0 10 -4 10 -10z m-220 -4 c0 -3 -4 -8 -10 -11 -5 -3 -10 -1 -10 4 0 6 5
11 10 11 6 0 10 -2 10 -4z m170 -16 c0 -18 -5 -19 -47 -13 -27 3 -50 8 -53 10
-10 9 27 23 63 23 30 0 37 -4 37 -20z m-110 -40 c0 -13 -28 -25 -38 -16 -3 4
0 11 8 16 20 13 30 12 30 0z m1735 -20 c3 -5 -1 -10 -9 -10 -9 0 -16 5 -16 10
0 6 4 10 9 10 6 0 13 -4 16 -10z m380 1 c8 -15 -35 -35 -47 -23 -6 6 -7 15 -4
21 9 14 43 14 51 2z m-3139 -37 c8 -32 -1 -102 -21 -161 -9 -25 -17 -87 -19
-137 -2 -50 -11 -145 -19 -211 -8 -66 -18 -154 -22 -195 -3 -41 -12 -111 -20
-155 -9 -55 -12 -111 -7 -175 4 -52 4 -142 0 -200 -8 -131 -34 -356 -43 -371
-8 -11 -36 -247 -38 -311 -2 -39 -16 -49 -35 -25 -15 17 -126 10 -165 -10 -35
-18 -111 -73 -152 -110 -31 -28 -115 -144 -142 -197 -9 -17 -19 -33 -23 -36
-16 -11 -77 -148 -89 -200 -8 -30 -17 -60 -22 -65 -15 -19 -40 -166 -34 -196
6 -26 4 -29 -18 -29 -13 0 -36 -10 -51 -21 -39 -31 -47 -13 -25 56 18 54 19
90 19 355 0 162 2 318 5 345 2 28 6 213 7 412 l3 361 65 70 c81 87 110 126
132 174 9 21 30 57 46 80 33 49 82 142 109 208 11 28 46 72 94 120 72 71 159
182 159 203 0 5 19 37 43 71 24 33 72 113 107 176 63 113 124 200 141 200 5 0
12 -12 15 -26z m2909 6 c3 -5 1 -10 -4 -10 -6 0 -11 5 -11 10 0 6 2 10 4 10 3
0 8 -4 11 -10z m448 -43 c31 -14 57 -32 57 -40 0 -7 10 -19 23 -26 20 -11 55
-67 46 -75 -2 -2 -19 -11 -36 -20 -30 -15 -36 -15 -63 -1 -32 16 -43 43 -12
30 31 -14 70 -17 76 -7 11 19 -42 68 -124 116 -44 26 -78 51 -75 56 6 10 18 6
108 -33z m158 -27 c5 0 9 -7 9 -15 0 -18 -21 -20 -38 -3 -17 17 -15 31 4 24 9
-3 20 -6 25 -6z m-496 -21 c11 -5 27 -13 35 -18 8 -6 48 -24 88 -42 66 -29
109 -59 84 -59 -26 0 -245 105 -263 126 -12 15 -11 16 11 9 14 -4 34 -12 45
-16z m263 -26 c18 -12 38 -24 45 -26 7 -2 9 -8 5 -12 -4 -4 -22 2 -40 14 -18
11 -48 28 -65 36 -18 8 -33 20 -33 25 0 11 42 -6 88 -37z m-148 7 c0 -5 -2
-10 -4 -10 -3 0 -8 5 -11 10 -3 6 -1 10 4 10 6 0 11 -4 11 -10z m-11770 -48
c30 -15 54 -31 52 -37 -4 -14 -31 -7 -63 16 -15 10 -40 19 -56 19 -35 0 -58
14 -48 30 9 15 45 7 115 -28z m12215 -9 c3 -13 3 -23 -2 -23 -11 0 -43 57 -35
64 8 9 28 -14 37 -41z m-385 27 c0 -5 -4 -10 -9 -10 -6 0 -13 5 -16 10 -3 6 1
10 9 10 9 0 16 -4 16 -10z m-11964 -57 c-10 -10 -19 5 -10 18 6 11 8 11 12 0
2 -7 1 -15 -2 -18z m1574 -14 c0 -5 8 -13 18 -16 60 -24 223 -161 347 -294 78
-83 125 -139 125 -150 0 -3 16 -26 35 -50 19 -24 35 -47 35 -52 0 -9 67 -113
91 -142 9 -11 19 -35 22 -53 4 -18 17 -56 30 -85 44 -98 72 -187 150 -467 67
-245 76 -276 97 -377 10 -45 20 -86 23 -90 7 -11 37 -181 42 -238 2 -22 11
-76 20 -120 12 -57 17 -144 19 -305 l3 -225 -45 -53 c-37 -44 -44 -57 -39 -82
10 -47 -11 -46 -57 1 -23 24 -69 67 -101 94 -101 85 -465 453 -465 469 0 12
17 60 26 74 2 2 36 -29 77 -70 74 -72 227 -187 227 -169 0 5 -21 26 -47 47
-27 22 -90 81 -140 131 -84 84 -92 95 -83 117 5 15 5 38 0 58 -5 18 -11 67
-14 108 -8 109 -21 192 -33 216 -7 11 -15 45 -19 75 -4 30 -11 65 -16 79 -5
14 -20 92 -34 173 -13 82 -28 156 -33 165 -4 10 -14 55 -20 102 -53 377 -101
600 -171 796 -10 28 -24 80 -30 115 -7 35 -25 95 -41 133 -33 77 -37 108 -14
100 8 -4 15 -10 15 -15z m10480 1 c8 -5 12 -12 8 -15 -9 -9 -48 4 -48 16 0 12
21 11 40 -1z m-11830 -25 c0 -8 -7 -15 -15 -15 -8 0 -15 7 -15 15 0 8 7 15 15
15 8 0 15 -7 15 -15z m-55 -26 c5 -6 5 -12 0 -18 -6 -6 -31 0 -65 15 l-55 25
55 -7 c30 -3 59 -10 65 -15z m12125 1 c-12 -23 -18 -24 -57 -9 -22 8 -24 12
-13 19 8 6 30 10 48 10 30 0 32 -2 22 -20z m58 -3 c2 -9 -8 -33 -22 -54 -14
-21 -26 -42 -26 -48 -1 -11 -50 -50 -50 -39 0 3 16 28 35 54 23 31 35 59 35
80 0 33 22 39 28 7z m-1674 7 c23 -9 20 -24 -4 -24 -11 0 -20 7 -20 15 0 17 2
18 24 9z m1513 -10 c-3 -3 -12 -4 -19 -1 -8 3 -5 6 6 6 11 1 17 -2 13 -5z m43
-218 c-9 -39 -16 -53 -25 -44 -3 2 3 23 12 46 19 51 25 50 13 -2z m-1520 -5
c0 -14 -18 -23 -31 -15 -8 4 -7 9 2 15 18 11 29 11 29 0z m-510 -17 c0 -3 -6
-15 -12 -27 -7 -12 -13 -31 -14 -42 -4 -42 -69 -195 -83 -195 -13 0 -1 38 26
87 13 23 23 53 23 67 0 14 5 28 10 31 6 3 10 15 10 26 0 21 21 59 32 59 5 0 8
-3 8 -6z m390 -4 c0 -5 -4 -10 -9 -10 -6 0 -13 5 -16 10 -3 6 1 10 9 10 9 0
16 -4 16 -10z m37 4 c-3 -3 -12 -4 -19 -1 -8 3 -5 6 6 6 11 1 17 -2 13 -5z
m154 -47 c-13 -13 -26 -3 -16 12 3 6 11 8 17 5 6 -4 6 -10 -1 -17z m47 -72
c20 -13 53 -28 72 -31 19 -4 42 -13 51 -21 14 -11 20 -10 42 7 44 35 59 22 37
-34 -9 -26 -27 -27 -58 -3 -7 5 -27 11 -45 13 -17 1 -52 12 -77 23 -25 11 -53
21 -62 21 -18 0 -25 30 -11 43 9 10 9 10 51 -18z m1796 -58 c-1 -30 -32 -142
-54 -192 -16 -36 -58 -169 -69 -215 -11 -50 -51 -132 -94 -196 -23 -34 -48
-51 -145 -99 -123 -61 -194 -109 -278 -186 -51 -47 -114 -86 -114 -71 0 11
101 101 173 155 31 24 114 77 185 120 82 49 135 88 149 109 29 46 74 146 113
253 18 50 45 125 61 168 16 43 29 84 29 90 0 13 37 97 42 97 2 0 3 -15 2 -33z
m-2199 -14 c25 -28 33 -49 15 -38 -13 8 -53 65 -45 65 3 0 17 -12 30 -27z
m1619 -88 c-20 -25 -39 -43 -42 -41 -5 5 36 67 53 78 27 20 23 4 -11 -37z
m-1579 -25 c19 -15 86 -50 99 -50 3 0 67 -30 143 -66 147 -70 307 -146 413
-196 36 -17 66 -32 68 -33 5 -4 -56 -198 -92 -295 -20 -52 -44 -115 -53 -139
-17 -48 -45 -81 -68 -81 -21 0 -19 22 6 81 17 39 19 53 10 62 -16 16 -35 -9
-57 -77 -9 -28 -21 -54 -27 -58 -6 -3 -36 3 -68 15 l-58 21 -6 55 c-10 93 -13
101 -39 101 -26 0 -36 -17 -36 -60 0 -40 -13 -44 -60 -20 -30 16 -40 26 -40
45 0 22 -4 25 -38 25 -29 0 -48 8 -79 35 -58 49 -68 79 -52 152 8 32 15 76 17
98 17 241 19 258 31 287 8 22 8 26 -4 21 -10 -3 -15 2 -15 16 0 12 -6 21 -13
21 -11 0 -16 -43 -25 -192 -13 -232 -27 -313 -63 -359 -15 -19 -29 -32 -32
-29 -10 9 45 429 63 484 6 16 10 60 10 98 0 67 1 69 23 63 12 -4 31 -15 42
-25z m75 20 c0 -5 -2 -10 -4 -10 -3 0 -8 5 -11 10 -3 6 -1 10 4 10 6 0 11 -4
11 -10z m50 -20 c0 -5 -4 -10 -9 -10 -6 0 -13 5 -16 10 -3 6 1 10 9 10 9 0 16
-4 16 -10z m-10450 -50 c-10 -19 -40 -28 -40 -12 0 13 23 32 37 32 11 0 11 -5
3 -20z m10575 -11 c16 -16 -19 -9 -40 7 -19 16 -19 16 5 9 14 -4 29 -11 35
-16z m1275 12 c0 -5 -7 -14 -15 -21 -16 -14 -18 -10 -9 14 6 17 24 22 24 7z
m-1157 -63 c15 -5 27 -13 27 -18 0 -11 -68 14 -83 30 -10 10 -8 12 8 5 11 -4
32 -12 48 -17z m1097 -108 c0 -5 -9 -10 -21 -10 -11 0 -17 5 -14 10 3 6 13 10
21 10 8 0 14 -4 14 -10z m-754 -56 c18 -14 18 -15 -6 -8 -31 8 -50 24 -29 24
8 0 24 -7 35 -16z m134 -54 c0 -5 -4 -10 -10 -10 -5 0 -10 5 -10 10 0 6 5 10
10 10 6 0 10 -4 10 -10z m17 -70 c54 -22 103 -40 108 -40 6 0 27 -9 48 -20 20
-11 45 -20 55 -20 16 0 18 -10 19 -86 1 -48 6 -91 12 -97 6 -6 11 -19 11 -29
0 -22 72 -123 100 -141 22 -13 26 -27 8 -27 -6 0 -19 -6 -27 -14 -9 -8 -54
-33 -101 -57 -63 -32 -102 -61 -152 -113 -38 -38 -68 -76 -68 -84 0 -9 -8 -24
-17 -35 -13 -13 -18 -36 -18 -75 0 -80 -18 -80 -104 2 -81 79 -115 137 -145
252 -20 74 -21 87 -9 111 7 15 11 33 9 40 -3 7 1 28 8 46 8 17 26 66 41 107
15 41 30 84 35 95 27 69 39 103 44 126 7 32 35 99 41 99 3 0 49 -18 102 -40z
m571 -1 c-2 -6 -51 -34 -108 -63 -82 -40 -106 -56 -108 -73 -4 -29 -22 -30
-22 -2 0 30 18 59 43 69 12 5 58 25 102 44 87 39 99 42 93 25z m141 -20 c43
-43 41 -78 -12 -160 -39 -62 -157 -199 -171 -199 -19 0 3 32 84 123 89 100
106 133 98 188 -2 16 -16 31 -40 44 -44 23 -48 35 -14 35 14 0 38 -13 55 -31z
m-169 -224 c-7 -8 -17 -15 -23 -15 -5 0 -2 9 8 20 21 23 35 19 15 -5z m-1490
-11 c0 -16 5 -24 13 -21 6 2 12 9 12 15 0 23 15 23 43 1 16 -13 43 -31 59 -40
34 -19 43 -48 43 -146 0 -74 -11 -75 -41 -7 -21 46 -81 100 -99 89 -16 -10
-12 -22 20 -58 16 -18 36 -55 46 -82 9 -27 27 -65 40 -85 16 -23 30 -70 41
-126 29 -166 32 -158 34 90 l2 198 18 -37 c22 -45 47 -161 55 -248 5 -63 9
-75 21 -64 9 10 32 193 33 269 0 37 4 69 9 72 17 11 33 -85 36 -211 1 -70 3
-130 4 -133 1 -3 7 4 13 15 7 12 13 76 14 158 2 75 5 137 9 138 16 2 86 -14
90 -21 3 -4 -4 -28 -15 -51 -11 -24 -20 -61 -20 -82 0 -21 -11 -64 -25 -97
-27 -64 -30 -80 -16 -80 16 0 69 115 76 165 9 64 34 135 49 135 6 0 22 3 35 7
22 6 23 4 17 -23 -4 -16 -13 -42 -21 -59 -21 -48 -51 -134 -74 -212 -12 -40
-26 -75 -31 -78 -4 -3 -22 6 -39 21 -30 25 -51 25 -51 -1 0 -7 16 -29 35 -48
37 -37 45 -71 20 -81 -22 -8 -45 4 -45 24 0 9 -11 29 -25 44 -14 16 -25 39
-25 55 0 31 -23 57 -40 46 -5 -3 -10 -16 -10 -28 0 -14 -11 -29 -29 -40 -27
-16 -30 -16 -53 2 -20 17 -27 17 -48 6 -22 -12 -29 -10 -75 23 -27 19 -70 58
-94 85 -41 48 -43 52 -37 97 5 36 36 344 36 358 0 1 -4 2 -9 2 -15 0 -38 -141
-46 -283 -2 -37 -7 -78 -11 -90 -10 -32 -56 -89 -64 -80 -4 4 -2 42 5 83 7 41
16 98 19 125 28 264 27 259 54 288 32 34 42 34 42 1z m290 -134 c16 -10 25
-176 9 -185 -5 -4 -10 11 -11 32 0 21 -2 49 -2 63 -1 14 -12 42 -25 63 -21 34
-21 37 -4 37 10 0 25 -4 33 -10z m1180 -69 c0 -11 -46 -20 -71 -14 -35 10 -19
23 26 23 25 0 45 -4 45 -9z m-11822 -241 c5 -63 6 -125 1 -137 -5 -12 -5 -25
0 -27 5 -3 7 -72 4 -153 -9 -357 -7 -571 6 -668 7 -55 15 -181 17 -280 2 -99
9 -211 15 -249 6 -40 8 -98 4 -138 -3 -39 -2 -75 3 -81 5 -7 15 -93 22 -193
11 -163 11 -184 -4 -212 -14 -27 -59 -53 -70 -41 -5 5 -22 166 -36 329 -9 112
-12 188 -29 775 -7 258 -1 630 13 750 3 28 8 136 12 240 8 240 11 319 14 325
4 8 18 -114 28 -240z m12462 176 c0 -13 -76 -130 -97 -149 -13 -12 -33 -40
-44 -61 -32 -60 -111 -136 -142 -136 -14 0 -28 -4 -31 -9 -6 -10 -48 -21 -196
-52 -58 -13 -107 -26 -110 -30 -3 -4 -22 -14 -42 -22 -21 -9 -38 -21 -38 -26
0 -16 -58 -43 -65 -31 -3 6 -3 14 0 20 9 15 165 91 205 100 19 5 55 15 80 24
25 9 77 25 116 36 86 24 132 59 200 154 92 129 164 209 164 182z m-1456 -117
c17 -50 17 -52 -2 -73 -25 -26 -42 -87 -42 -147 0 -36 -5 -51 -25 -69 -15 -15
-25 -34 -25 -52 0 -37 -15 -28 -39 23 l-20 40 25 72 c14 40 29 88 34 107 5 19
18 54 30 77 11 23 20 48 20 56 0 17 10 28 20 22 4 -3 15 -28 24 -56z m-9451
-111 c14 -13 51 -52 82 -88 32 -36 84 -94 116 -129 63 -68 72 -96 40 -125 -19
-17 -20 -17 -32 6 -6 13 -25 37 -41 53 -17 17 -41 50 -55 75 -59 102 -112 134
-172 104 l-33 -17 7 -61 c23 -211 117 -553 210 -761 7 -16 25 -59 41 -95 15
-36 44 -101 65 -145 21 -44 46 -105 55 -135 9 -30 21 -60 25 -66 5 -6 33 -71
63 -145 29 -74 77 -183 105 -242 28 -59 51 -112 51 -117 0 -5 15 -40 34 -77
19 -38 38 -82 42 -98 4 -17 18 -43 31 -58 12 -16 26 -41 30 -55 5 -24 46 -101
76 -144 9 -13 9 -25 0 -50 -7 -18 -15 -63 -19 -100 -4 -38 -10 -68 -13 -68 -4
0 -15 28 -25 63 -10 34 -22 73 -26 87 -5 14 -14 45 -20 70 -16 63 -88 231
-110 255 -15 17 -110 231 -166 375 -10 25 -46 99 -80 165 -34 66 -71 143 -82
170 -11 28 -49 122 -85 210 -78 194 -158 417 -181 505 -10 36 -29 87 -43 114
-43 82 -55 142 -59 301 -3 142 6 213 28 216 4 1 12 2 18 3 5 0 15 7 22 14 20
20 74 14 101 -10z m10277 -7 c29 -21 38 -62 16 -80 -13 -11 -15 -8 -13 15 5
72 -128 70 -283 -5 -90 -44 -134 -95 -100 -116 12 -8 13 -25 2 -25 -12 0 -41
76 -33 86 13 18 102 76 154 99 64 30 172 54 207 48 14 -3 36 -13 50 -22z
m-703 -78 c62 -61 81 -85 64 -80 -56 14 -77 -35 -47 -108 17 -41 45 -46 76
-15 22 22 26 60 10 91 -9 16 -7 19 8 19 23 0 42 -19 42 -43 0 -10 9 -30 20
-44 11 -14 20 -34 20 -45 0 -22 -25 -75 -47 -100 -10 -11 -15 -37 -15 -70 0
-42 -5 -60 -26 -88 -15 -19 -41 -62 -57 -95 -55 -108 -97 -175 -108 -175 -29
1 -96 50 -140 105 -82 100 -112 190 -67 202 15 4 20 14 20 42 0 33 -4 38 -42
56 l-43 20 3 55 c4 86 9 102 35 98 14 -2 23 -11 25 -25 2 -13 14 -31 28 -42
17 -14 24 -29 24 -54 0 -22 12 -56 30 -87 27 -46 62 -142 89 -245 28 -103 42
-70 17 38 -8 34 -22 96 -32 137 -9 41 -27 94 -39 117 -14 24 -26 70 -30 108
l-7 65 36 32 c27 24 36 39 36 64 0 18 -4 36 -10 39 -5 3 -10 15 -10 25 0 24
31 90 42 90 4 0 47 -39 95 -87z m-852 -10 c-4 -49 -9 -106 -11 -128 -6 -83
-13 -134 -34 -275 -25 -170 -40 -290 -47 -380 -5 -71 -15 -90 -46 -90 -22 0
-22 -9 3 220 6 52 13 118 15 145 3 28 9 86 15 130 22 169 50 407 50 421 0 8 7
14 15 14 9 0 18 7 21 15 4 8 11 15 16 15 7 0 8 -29 3 -87z m243 -68 c51 -27
53 -30 48 -59 -3 -17 -9 -50 -12 -73 l-6 -41 46 -7 c52 -8 61 -29 26 -60 -27
-24 -25 -40 8 -64 48 -36 72 -65 72 -87 0 -28 60 -104 80 -101 8 1 17 13 20
27 l6 25 11 -30 c6 -16 41 -68 78 -114 49 -60 80 -89 111 -102 24 -11 45 -23
48 -28 6 -9 -69 -159 -108 -216 -25 -37 -26 -37 -26 -11 0 51 -28 28 -41 -33
-4 -20 -12 -59 -18 -87 -11 -56 -59 -144 -77 -144 -11 0 -16 40 -29 240 -4 62
-4 61 -32 58 -27 -3 -28 -5 -34 -83 -7 -93 -28 -195 -41 -195 -9 0 -9 -4 -14
165 -4 130 -14 170 -46 178 -15 4 -19 11 -14 26 3 12 9 31 12 44 12 45 -15 -7
-33 -63 -24 -78 -41 -102 -67 -94 -11 3 -29 16 -38 28 -14 17 -19 19 -29 9
-19 -19 -40 -16 -101 17 -37 20 -58 38 -62 55 -3 13 -15 26 -25 30 -34 11 -41
27 -30 75 6 25 14 77 19 115 5 39 20 142 34 230 15 88 29 198 32 245 3 47 7
86 9 88 8 9 46 -22 60 -48 19 -37 19 -73 -1 -111 -18 -35 -11 -65 16 -74 32
-10 62 -56 55 -84 -5 -18 1 -32 23 -55 16 -17 32 -44 35 -61 3 -16 21 -71 39
-122 52 -144 63 -136 28 21 -18 80 -32 133 -47 174 -4 8 5 12 23 12 21 0 33
-8 45 -29 9 -15 41 -45 72 -65 30 -20 67 -52 82 -72 44 -57 48 -27 5 35 -22
31 -40 65 -40 75 0 9 -4 15 -9 12 -16 -10 -76 39 -79 64 -5 35 -22 52 -45 46
-19 -5 -67 12 -67 24 0 3 5 11 11 17 6 6 12 17 13 24 2 8 7 22 11 33 4 10 4
33 -2 50 -5 17 -9 54 -8 81 3 60 -9 78 -45 70 -19 -4 -44 5 -98 36 -62 36 -72
45 -72 69 0 62 7 62 88 0 42 -32 101 -70 130 -85z m162 -15 c0 -5 -4 -10 -10
-10 -5 0 -10 5 -10 10 0 6 5 10 10 10 6 0 10 -4 10 -10z m960 -42 c-79 -70
-130 -95 -130 -65 0 8 17 21 38 30 20 9 57 32 82 50 60 46 67 35 10 -15z
m-955 0 c26 -7 45 -18 45 -26 0 -10 8 -12 30 -7 35 8 36 2 10 -53 -24 -49 -26
-117 -5 -138 24 -25 29 -62 11 -89 -9 -14 -20 -25 -25 -25 -12 0 -23 63 -15
84 5 12 2 17 -7 15 -20 -4 -59 23 -59 41 0 8 7 24 15 34 8 11 15 37 15 59 l0
39 -35 -6 c-52 -10 -72 5 -67 48 5 41 14 43 87 24z m-217 -102 c3 -79 -6 -96
-40 -74 -19 13 -22 24 -23 82 l0 67 30 -3 c30 -3 30 -3 33 -72z m1162 19 c-14
-16 -40 -20 -40 -6 0 10 17 19 39 20 11 1 11 -2 1 -14z m-247 -107 c-24 -24
-37 -21 -27 6 3 9 16 16 27 16 l21 0 -21 -22z m324 2 c15 -22 7 -74 -15 -108
-18 -27 -86 -65 -110 -60 -11 2 -1 13 31 31 74 44 87 74 61 141 -9 23 19 20
33 -4z m493 -130 c0 -5 -3 -10 -8 -10 -4 0 -39 -25 -77 -55 -80 -64 -132 -84
-234 -88 -74 -3 -60 19 16 26 74 7 217 69 262 113 25 25 41 31 41 14z m-924
-75 c9 -20 33 -50 54 -68 33 -29 38 -38 43 -92 4 -33 9 -74 13 -92 4 -22 -2
-50 -20 -96 -28 -70 -33 -116 -15 -148 9 -17 4 -30 -27 -75 -31 -44 -43 -54
-66 -54 -36 0 -75 20 -110 57 -29 31 -61 97 -51 107 3 3 1 44 -6 91 -12 78
-12 88 4 105 9 10 14 23 11 28 -3 5 14 40 39 78 25 37 48 77 51 88 13 44 45
106 54 106 5 0 17 -16 26 -35z m-9191 -137 l164 -163 5 -75 c3 -41 10 -102 15
-135 5 -33 15 -132 21 -220 6 -88 15 -205 21 -261 5 -56 7 -108 3 -118 -10
-26 18 -105 39 -112 39 -12 64 14 137 144 8 15 32 57 53 94 40 72 104 214 119
266 5 17 15 32 23 32 7 0 15 5 17 12 4 12 82 -44 118 -84 8 -9 29 -25 46 -35
137 -79 162 -93 174 -93 29 0 -9 -141 -85 -310 -59 -131 -101 -206 -120 -214
-19 -7 -17 -62 2 -91 7 -11 13 -29 13 -41 0 -12 8 -50 19 -85 28 -97 47 -172
81 -314 17 -71 47 -193 67 -270 19 -77 41 -169 49 -205 7 -36 20 -83 28 -105
8 -22 15 -54 16 -71 0 -16 9 -49 20 -72 11 -22 25 -65 31 -94 5 -29 15 -64 20
-77 14 -33 28 -111 20 -111 -19 0 -211 226 -211 249 0 5 -10 18 -23 28 -12 10
-32 34 -44 53 -12 19 -31 42 -42 50 -12 8 -21 18 -21 23 0 4 -13 25 -29 45
-89 115 -136 188 -138 211 -2 33 -20 93 -78 256 -26 72 -58 164 -72 205 -13
41 -35 104 -49 140 -13 36 -34 101 -46 145 -12 44 -26 82 -30 83 -4 2 -8 10
-8 19 0 20 -20 12 -43 -19 -18 -24 -18 -32 -7 -133 9 -81 9 -110 1 -118 -9 -9
-17 -6 -31 13 -11 14 -20 30 -20 35 0 6 -29 68 -65 138 -36 70 -65 133 -65
140 0 7 -18 46 -40 87 -62 118 -80 160 -80 187 0 30 -24 187 -45 293 -8 41
-19 113 -24 160 -11 94 -47 361 -61 455 -15 93 -24 225 -15 225 4 0 80 -73
170 -162z m9445 147 c-14 -8 -32 -14 -40 -14 -8 0 -1 7 15 14 39 18 57 18 25
0z m160 -94 c0 -34 -250 -185 -271 -164 -14 14 -32 124 -22 134 5 5 63 15 129
23 154 17 164 18 164 7z m-2267 -203 c17 -83 29 -118 68 -203 38 -83 44 -108
28 -103 -19 6 -98 187 -110 250 -20 113 -21 128 -12 128 6 0 17 -33 26 -72z
m-1448 12 c47 -11 74 -40 117 -130 31 -64 31 -65 20 -145 -15 -109 -36 -206
-50 -231 -6 -12 -25 -75 -41 -140 -17 -66 -44 -159 -61 -208 -16 -50 -30 -96
-30 -104 0 -8 -20 -57 -45 -110 -25 -52 -45 -99 -45 -105 0 -6 -8 -20 -19 -31
-10 -12 -35 -61 -56 -111 -21 -49 -54 -126 -75 -170 -20 -44 -43 -96 -51 -115
-7 -19 -27 -60 -44 -90 -30 -55 -76 -159 -115 -258 -11 -29 -31 -75 -46 -103
-34 -68 -26 -84 13 -23 31 48 106 201 118 238 12 40 15 5 6 -65 -20 -145 -32
-225 -46 -309 -7 -47 -21 -146 -30 -220 -16 -131 -27 -186 -47 -242 -6 -15 -7
-31 -4 -37 4 -6 3 -28 -3 -48 -16 -65 -29 -135 -41 -223 -7 -47 -30 -141 -51
-210 -22 -69 -42 -141 -45 -160 -4 -19 -15 -60 -24 -90 -10 -30 -22 -89 -25
-130 -7 -75 -18 -113 -74 -268 -16 -45 -37 -113 -46 -150 -9 -37 -34 -105 -56
-151 -21 -46 -39 -93 -39 -105 0 -12 -7 -31 -15 -43 -8 -12 -20 -46 -26 -75
-43 -209 -60 -270 -93 -334 -14 -27 -28 -61 -31 -76 -6 -29 -19 -37 -28 -15
-6 16 23 107 34 107 5 0 9 20 9 44 0 31 5 46 16 50 11 4 14 14 11 29 -4 15 1
29 19 46 32 31 39 62 25 116 -14 58 -14 66 4 59 9 -4 15 0 15 9 0 20 -50 32
-61 15 -5 -7 -7 -19 -4 -26 3 -8 5 -27 5 -44 0 -23 4 -29 15 -24 11 4 15 -2
15 -22 0 -18 -3 -23 -8 -14 -5 7 -16 10 -25 6 -12 -4 -17 -1 -17 10 0 25 -19
19 -26 -8 -4 -16 -11 -22 -23 -19 -13 3 -22 -6 -34 -38 -13 -34 -20 -41 -37
-36 -14 4 -23 0 -27 -11 -3 -9 -13 -25 -22 -35 -12 -15 -13 -20 -2 -26 8 -5
11 -17 6 -30 -3 -11 -2 -21 3 -21 15 0 44 49 36 61 -7 12 15 31 26 24 4 -2 0
-27 -9 -54 -16 -52 -38 -71 -53 -49 -5 7 -13 20 -18 28 -9 13 -11 13 -21 -3
-8 -14 -14 -15 -32 -5 -12 7 -25 11 -29 10 -5 -1 -8 5 -8 13 0 8 -4 15 -10 15
-5 0 -10 -11 -10 -25 0 -21 5 -25 28 -25 42 0 56 -13 43 -39 -14 -25 -24 -26
-41 -6 -7 8 -24 15 -39 15 -14 0 -35 7 -45 15 -11 8 -27 15 -35 15 -21 1 -66
40 -75 65 -6 16 -9 17 -16 5 -6 -8 -10 -10 -10 -5 0 12 -34 29 -105 55 -27 10
-86 35 -130 56 -44 21 -86 37 -93 36 -8 -2 -23 3 -35 11 -12 7 -49 22 -82 32
-51 15 -88 33 -220 102 -62 33 -193 85 -280 113 -55 17 -129 48 -165 69 -36
20 -96 50 -135 65 -38 15 -78 32 -87 37 -10 5 -45 18 -79 30 -34 12 -73 28
-88 35 -14 8 -32 14 -39 14 -8 0 -28 6 -45 14 -18 8 -54 19 -82 26 -87 20
-165 52 -165 67 0 10 6 13 17 9 18 -7 75 -25 168 -51 33 -10 65 -22 71 -26 6
-5 39 -16 75 -24 35 -9 84 -22 109 -30 109 -33 198 -55 240 -57 41 -3 45 -1
48 22 5 43 -43 77 -157 114 -56 18 -102 36 -102 40 1 4 56 9 123 12 68 2 161
8 208 14 47 5 92 10 100 11 8 0 31 6 50 14 19 7 58 16 85 20 28 4 55 10 60 14
6 4 33 16 60 26 28 10 69 29 93 41 23 13 48 24 54 24 16 0 181 110 175 117 -3
3 -39 -11 -79 -31 -128 -62 -372 -154 -418 -157 -25 -1 -61 -8 -82 -15 -48
-16 -200 -28 -378 -28 -125 -1 -162 3 -265 28 -66 15 -138 30 -159 33 -22 2
-58 11 -80 19 -23 8 -68 24 -101 35 -33 11 -64 25 -69 30 -20 19 3 17 70 -5
83 -28 325 -82 409 -91 83 -9 95 -9 313 -3 175 6 196 8 212 26 10 11 38 22 64
25 50 7 108 29 221 83 39 18 89 37 113 43 24 5 51 16 60 24 23 19 122 67 140
67 7 0 28 11 46 25 18 14 48 30 67 37 19 6 54 24 79 40 25 15 58 36 74 46 41
25 218 165 240 190 11 12 23 22 27 22 16 0 76 47 136 108 35 35 67 61 73 57
13 -8 13 -62 0 -70 -5 -3 -10 -15 -10 -26 0 -10 -4 -19 -9 -19 -5 0 -19 -19
-30 -43 -11 -23 -41 -62 -65 -86 -25 -24 -50 -56 -56 -70 -6 -14 -32 -40 -58
-58 -59 -40 -141 -123 -122 -123 8 0 49 25 90 55 41 30 78 55 82 55 5 0 8 -19
8 -42 0 -45 -26 -203 -35 -219 -6 -9 -32 -114 -65 -264 -12 -55 -31 -121 -41
-147 -10 -26 -19 -55 -19 -66 0 -18 -14 -71 -42 -162 -21 -68 -48 -205 -48
-245 0 -23 5 -46 12 -53 18 -18 63 -15 80 6 40 45 135 367 203 692 15 69 31
139 36 155 16 48 45 162 69 275 16 75 29 114 49 140 45 58 88 133 101 175 8
23 38 68 72 104 32 35 58 70 58 77 0 7 27 49 60 93 33 44 59 84 59 88 -2 9 15
50 68 166 20 42 34 80 31 83 -4 3 -27 -34 -53 -83 -62 -115 -121 -207 -168
-261 -20 -24 -47 -61 -60 -83 -28 -50 -45 -49 -53 1 -4 22 -11 43 -15 46 -17
10 -9 37 22 73 78 92 138 173 178 241 24 41 54 91 66 110 12 19 27 50 33 69 7
18 31 63 55 100 38 58 108 185 206 376 37 73 131 273 131 280 0 3 16 40 36 83
20 42 44 95 54 117 10 22 22 54 26 70 4 17 18 49 31 72 12 23 23 50 23 60 0
10 18 58 40 108 22 49 40 94 40 100 0 5 12 33 25 60 14 28 25 64 25 82 0 17 9
52 20 78 11 26 20 56 20 68 0 12 14 69 30 127 57 196 60 211 60 276 0 72 -13
104 -58 148 l-31 28 -75 -31 c-41 -17 -81 -31 -88 -31 -15 0 -94 -57 -142
-102 -16 -16 -32 -28 -37 -28 -8 0 -144 -90 -239 -159 -86 -62 -158 -111 -164
-111 -14 0 -4 49 14 65 10 9 24 31 30 49 8 22 37 50 102 96 50 36 109 79 132
95 22 17 70 51 106 75 36 24 100 73 143 108 73 60 147 99 192 101 11 0 38 -4
60 -9z m3728 -7 c4 -2 7 -14 7 -26 l0 -21 -16 22 c-9 14 -26 22 -44 22 -43 0
-169 -46 -196 -71 -24 -23 -41 -21 -31 3 8 22 119 73 172 79 47 5 90 2 108 -8z
m-652 -105 c7 -12 14 -43 15 -68 6 -72 11 -85 57 -133 31 -33 56 -50 90 -59
26 -6 47 -15 47 -19 0 -3 -24 -39 -54 -80 -30 -41 -85 -118 -122 -171 -37 -54
-71 -98 -75 -98 -14 0 -71 32 -111 64 -38 28 -38 29 -32 85 20 207 21 213 71
306 26 50 59 114 72 143 14 28 26 52 27 52 2 0 9 -10 15 -22z m-8665 -29 c16
-17 55 -49 87 -70 60 -42 64 -48 47 -80 -10 -18 -12 -18 -38 -2 -112 71 -163
129 -148 168 8 22 19 19 52 -16z m7770 18 c5 -15 -8 -131 -30 -264 -9 -51 -23
-135 -32 -185 -53 -315 -60 -373 -45 -364 11 7 53 234 92 496 11 74 22 142 24
150 3 9 9 49 14 89 11 89 24 107 52 69 23 -31 109 -82 157 -92 32 -8 32 -8 32
-69 0 -33 5 -76 12 -94 10 -26 9 -42 -1 -76 -6 -23 -14 -53 -17 -67 -5 -24 -5
-24 10 -6 9 11 16 28 16 38 0 10 5 18 10 18 6 0 10 -28 10 -64 0 -37 6 -77 15
-93 16 -31 52 -260 42 -269 -9 -9 -147 -34 -189 -34 -42 0 -46 10 -23 50 17
29 19 50 5 50 -12 0 -37 -48 -61 -115 -25 -70 -39 -69 -39 3 0 76 -20 90 -49
34 -21 -41 -95 -122 -111 -122 -5 0 -10 15 -11 33 l-1 32 -12 -37 c-6 -20 -17
-43 -24 -50 -10 -10 -12 -1 -6 47 11 111 34 247 45 266 6 11 11 82 13 157 2
84 12 191 26 277 13 77 24 154 26 170 1 17 3 31 3 33 3 8 43 0 47 -11z m1314
-59 c0 -10 -4 -18 -10 -18 -5 0 -10 8 -10 18 0 9 -3 28 -6 42 l-5 25 15 -25
c8 -14 15 -33 16 -42z m-3970 27 c0 -8 -4 -15 -10 -15 -5 0 -10 7 -10 15 0 8
5 15 10 15 6 0 10 -7 10 -15z m3050 -84 c0 -49 -12 -91 -26 -91 -24 0 -26 20
-8 70 20 56 34 64 34 21z m-8184 -14 c11 -7 53 -39 93 -71 58 -48 71 -64 67
-80 -3 -12 -6 -29 -6 -38 0 -15 -9 -13 -67 14 -96 44 -115 65 -121 132 -5 58
-1 63 34 43z m8125 -18 c-1 -13 -8 -33 -15 -44 -10 -18 -11 -17 -14 13 -2 19
-1 41 2 49 9 23 31 9 27 -18z m1124 -115 c-9 -53 -20 -107 -26 -120 -5 -14 -8
-28 -7 -32 5 -19 -15 -112 -26 -121 -20 -17 -60 33 -105 129 -34 73 -39 92
-34 130 8 65 19 79 62 86 20 3 62 21 92 40 l54 33 3 -25 c2 -13 -4 -68 -13
-120z m-2115 41 c18 -33 43 -72 57 -87 14 -14 23 -32 21 -38 -7 -22 -123 140
-134 188 -6 24 -5 25 9 12 8 -8 30 -42 47 -75z m1100 -2 c0 -28 -4 -54 -9 -58
-16 -9 -18 7 -13 74 5 75 22 63 22 -16z m-2855 35 c-4 -13 -20 -50 -35 -83
-16 -33 -47 -103 -69 -156 -22 -53 -61 -140 -86 -193 -25 -53 -45 -98 -45
-101 0 -3 -21 -49 -46 -103 -26 -53 -53 -115 -61 -137 -7 -22 -22 -53 -32 -70
-10 -17 -21 -44 -25 -60 -6 -27 -37 -100 -98 -235 -22 -46 -44 -104 -97 -249
-17 -46 -37 -93 -44 -105 -7 -12 -21 -43 -31 -71 -10 -27 -27 -68 -37 -90 -16
-36 -17 -54 -8 -160 23 -299 23 -352 3 -382 -26 -39 -44 -74 -44 -85 0 -6 -29
-42 -64 -82 -35 -39 -70 -84 -79 -101 -17 -34 -154 -172 -162 -164 -11 12 -28
251 -31 464 -3 205 -6 237 -25 290 -28 78 -87 232 -104 270 -8 17 -38 98 -68
180 -31 83 -74 195 -97 250 -91 217 -110 265 -110 282 0 10 -7 31 -15 47 -8
15 -15 32 -15 36 0 23 148 79 243 93 20 3 50 15 66 26 16 12 36 21 45 21 11 0
44 -56 101 -171 47 -95 85 -177 85 -184 0 -7 7 -18 15 -25 8 -7 15 -21 15 -31
0 -10 6 -22 13 -26 6 -4 17 -17 23 -28 21 -38 38 -22 62 55 47 154 134 389
185 501 33 70 64 155 72 196 6 31 36 56 125 101 14 7 59 40 100 73 41 34 89
68 105 76 17 9 43 26 58 39 16 13 34 24 40 25 7 0 39 20 72 44 69 49 110 59
100 23z m3639 -30 c-13 -87 -7 -123 40 -221 40 -85 81 -137 118 -149 10 -4 10
-22 1 -89 -19 -134 -58 -343 -66 -357 -12 -18 -29 -4 -22 19 9 29 -17 33 -58
9 -19 -11 -38 -17 -41 -12 -3 5 -4 35 -1 66 2 30 0 58 -6 62 -11 6 -99 176
-112 214 -24 73 -24 135 -2 243 14 67 29 116 41 130 11 12 37 48 57 80 47 73
62 74 51 5z m-843 -70 c0 -15 0 -59 0 -98 0 -130 -1 -144 -9 -134 -17 19 -31
92 -36 186 l-4 97 24 -11 c17 -8 24 -20 25 -40z m183 15 c10 -62 7 -95 -6 -91
-8 3 -14 28 -16 66 -3 68 12 85 22 25z m-8303 -68 c83 -48 99 -66 102 -109 3
-51 -21 -68 -62 -43 -16 9 -38 17 -48 17 -10 0 -29 7 -41 16 -19 13 -22 24
-22 85 0 38 3 69 6 69 3 0 32 -16 65 -35z m7243 -73 c4 -12 16 -27 27 -32 16
-9 28 -40 15 -40 -16 0 -36 15 -36 26 0 8 -9 27 -19 42 -11 15 -23 38 -26 52
l-7 25 19 -25 c11 -14 23 -35 27 -48z m932 24 c-4 -18 -1 -46 5 -62 6 -16 15
-69 20 -117 7 -71 6 -95 -6 -124 -11 -26 -12 -39 -4 -49 16 -19 2 -34 -33 -34
-30 0 -30 1 -25 38 11 70 28 267 27 312 -2 64 -1 70 11 70 7 0 9 -12 5 -34z
m237 -25 c-4 -23 -12 -43 -18 -44 -15 -3 -18 45 -5 78 16 43 34 18 23 -34z
m-170 -13 c6 -48 -4 -75 -14 -38 -10 36 -10 80 0 80 4 0 11 -19 14 -42z
m-1022 -10 c8 -15 8 -18 0 -14 -6 4 -16 16 -22 28 -8 15 -8 18 0 14 6 -4 16
-16 22 -28z m1082 -4 c6 -33 -10 -94 -25 -94 -7 0 -8 13 -4 38 3 20 6 47 6 60
0 31 17 28 23 -4z m468 -38 c-12 -50 -1 -163 20 -211 8 -16 33 -63 56 -103 44
-74 50 -92 34 -92 -12 0 -29 17 -77 75 -20 25 -42 45 -49 45 -7 0 -33 -48 -59
-107 -46 -111 -57 -124 -31 -37 25 82 22 91 -32 99 -76 10 -93 16 -93 30 0 22
17 27 57 16 54 -15 64 1 25 41 l-31 33 27 41 c15 23 40 61 56 85 16 24 45 69
65 98 38 60 49 55 32 -13z m-393 -26 c23 -31 27 -64 16 -168 l-7 -60 -36 -5
c-20 -2 -37 -3 -39 -1 -2 1 4 42 13 91 10 48 17 107 17 131 0 23 3 42 7 42 4
0 17 -13 29 -30z m-8366 -27 c38 -18 58 -34 58 -46 0 -28 -81 -147 -101 -147
-3 0 -9 26 -12 58 -4 31 -9 81 -13 110 -4 28 -3 52 2 52 5 0 35 -12 66 -27z
m726 -23 c7 0 12 -4 12 -10 0 -5 -6 -10 -12 -10 -19 1 -48 25 -48 40 0 9 5 8
18 -3 10 -10 24 -17 30 -17z m7723 -33 c13 -10 15 -22 9 -69 -11 -80 -19 -100
-38 -96 -18 4 -20 45 -7 136 7 45 11 48 36 29z m-7571 -32 c34 -17 47 -35 27
-35 -28 0 -137 48 -137 61 0 10 76 -8 110 -26z m3770 24 c0 -7 -5 -29 -12 -50
-10 -36 -14 -39 -48 -39 -34 0 -60 14 -60 32 0 8 99 68 113 68 4 0 7 -5 7 -11z
m3640 -11 c0 -13 -3 -47 -7 -76 -5 -45 -10 -55 -31 -63 -14 -5 -27 -8 -29 -6
-7 8 17 101 35 135 19 37 32 41 32 10z m-3693 -121 c9 -6 8 -17 -2 -48 -21
-59 -23 -60 -54 -44 -16 8 -31 12 -34 9 -9 -10 -117 8 -117 19 0 5 9 29 21 52
l21 41 77 -11 c42 -6 82 -14 88 -18z m3921 10 c9 -10 7 -19 -4 -35 -22 -32
-34 -27 -34 13 0 37 18 47 38 22z m-7776 -68 c103 -32 168 -70 168 -95 0 -45
-3 -44 -200 31 -47 18 -93 35 -102 38 -15 5 -16 10 -6 32 14 30 30 29 140 -6z
m7620 -11 c6 -16 124 -47 185 -48 28 0 54 -4 58 -9 8 -14 -266 -221 -293 -221
-7 0 -27 -7 -44 -16 -44 -23 -113 -11 -149 26 -16 15 -30 26 -33 23 -14 -14
-206 146 -206 172 0 22 198 42 205 21 2 -6 6 -39 8 -74 5 -69 16 -94 19 -41 1
19 2 43 3 54 1 11 3 32 4 46 1 20 8 29 28 33 29 8 43 -5 43 -41 0 -13 5 -23
10 -23 6 0 10 14 10 31 0 17 5 39 10 49 13 24 40 15 40 -14 1 -21 1 -21 12 -1
22 41 81 62 90 33z m-6902 -56 c36 -12 103 -34 150 -47 47 -13 110 -33 140
-44 30 -12 62 -21 72 -21 9 0 29 -5 45 -12 15 -6 35 -13 43 -14 8 -1 49 -10
90 -19 41 -9 120 -19 175 -21 55 -2 156 -10 225 -18 76 -8 206 -13 330 -11
113 1 241 0 285 -3 l80 -5 0 -46 c1 -25 4 -95 8 -156 8 -129 2 -191 -22 -201
-29 -12 -363 -15 -451 -4 -148 18 -378 58 -470 80 -19 5 -60 11 -90 15 -30 4
-60 12 -67 17 -29 23 -33 -5 -32 -215 0 -117 -2 -244 -6 -282 -6 -54 -4 -73 6
-82 23 -18 226 -53 424 -73 177 -18 258 -27 288 -35 25 -7 27 -11 23 -46 -2
-21 -7 -42 -10 -48 -4 -5 -2 -12 4 -16 6 -4 9 -78 7 -203 -3 -188 -4 -197 -22
-199 -11 0 -54 -6 -94 -13 -94 -15 -441 2 -527 26 -31 8 -50 -49 -35 -103 6
-21 11 -124 11 -228 l0 -191 35 -13 c20 -7 50 -14 68 -17 18 -2 55 -10 82 -19
28 -8 64 -15 81 -15 17 0 44 -4 60 -9 32 -11 80 -18 182 -26 37 -3 94 -10 127
-16 33 -5 113 -11 178 -13 70 -2 123 -8 130 -15 15 -15 21 -124 12 -206 -8
-78 -20 -87 -108 -85 -93 3 -98 3 -147 -9 -25 -6 -126 -14 -225 -17 -164 -6
-188 -5 -268 15 -49 12 -96 26 -105 31 -61 32 -238 111 -292 130 -36 12 -78
28 -95 35 -16 8 -48 21 -70 31 -22 9 -56 28 -75 43 -39 29 -114 78 -158 102
-26 15 -29 22 -35 85 -4 38 -7 294 -7 569 0 528 -10 907 -35 1373 -9 155 -13
287 -10 292 4 6 12 7 18 3 7 -4 41 -18 77 -31z m-805 -12 c33 -12 69 -25 80
-30 11 -5 38 -16 60 -25 61 -25 70 -31 73 -47 5 -25 -24 -28 -64 -7 -21 10
-44 19 -52 19 -7 0 -47 16 -88 35 -41 19 -79 35 -84 35 -13 0 -22 18 -15 30 9
14 23 13 90 -10z m2670 10 c-3 -5 -11 -10 -16 -10 -6 0 -7 5 -4 10 3 6 11 10
16 10 6 0 7 -4 4 -10z m1105 -6 c28 -5 91 -29 109 -41 2 -2 -4 -20 -13 -42
-17 -38 -19 -39 -60 -34 -93 10 -146 24 -146 39 0 8 9 33 20 55 15 28 26 39
38 35 9 -2 33 -8 52 -12z m3320 -25 c0 -11 5 -30 11 -41 16 -29 -4 -91 -36
-112 -13 -9 -40 -16 -59 -16 -40 0 -45 -11 -66 -138 -12 -76 -8 -104 9 -58 6
14 16 26 23 26 9 0 13 15 13 44 0 47 25 86 55 86 10 0 23 7 30 15 18 22 40 18
41 -7 1 -13 3 -48 5 -78 1 -30 4 -66 6 -80 3 -23 0 -25 -44 -28 -50 -3 -53 -7
-48 -59 2 -27 -17 -30 -46 -8 -20 15 -54 20 -54 8 1 -20 22 -38 57 -48 l38
-11 1 -72 c1 -40 5 -76 8 -80 13 -12 26 22 26 67 0 40 2 43 23 36 12 -3 43 -9
70 -12 51 -6 90 -40 109 -95 6 -17 17 -28 29 -28 12 0 19 -7 19 -20 0 -19 -7
-20 -122 -20 -129 0 -193 14 -233 49 -11 10 -28 21 -37 24 -9 3 -28 23 -41 44
-23 35 -24 43 -16 113 4 41 8 107 8 147 1 48 5 73 14 76 9 3 9 7 -1 19 -15 18
-6 48 14 48 8 0 14 7 14 15 0 39 32 91 70 113 22 12 47 37 56 55 23 44 35 58
45 51 5 -3 9 -14 9 -25z m1044 -21 c29 -24 60 -47 68 -53 9 -5 19 -29 22 -52
6 -40 4 -43 -36 -76 -66 -53 -89 -63 -100 -43 -13 24 -33 20 -54 -11 -28 -44
-46 -54 -65 -37 -23 21 -30 17 -19 -12 6 -14 10 -29 10 -34 0 -10 -72 -50 -89
-50 -13 0 1 39 27 78 70 102 96 147 127 222 19 47 35 91 35 98 0 21 18 13 74
-30z m-964 -13 c0 -8 -4 -15 -10 -15 -5 0 -10 7 -10 15 0 8 5 15 10 15 6 0 10
-7 10 -15z m775 -27 c-9 -43 -96 -261 -134 -336 -34 -66 -71 -102 -108 -102
-13 0 -36 -6 -51 -14 -15 -8 -63 -26 -107 -41 -44 -15 -84 -31 -90 -35 -5 -4
-21 -11 -35 -15 -14 -4 -39 -18 -57 -31 -17 -13 -35 -24 -40 -24 -14 0 -7 101
12 165 44 153 109 225 204 225 74 0 202 73 346 197 27 24 53 43 58 43 5 0 5
-15 2 -32z m-690 -41 c28 -29 76 -68 107 -87 32 -19 58 -40 58 -47 0 -7 -18
-31 -40 -55 -27 -30 -46 -63 -60 -110 -11 -36 -20 -71 -20 -78 0 -25 -24 -2
-38 36 -10 26 -14 74 -13 147 1 109 -6 126 -37 95 -18 -18 -36 5 -36 45 0 44
13 107 22 107 4 0 30 -24 57 -53z m-358 1 c-3 -8 -6 -5 -6 6 -1 11 2 17 5 13
3 -3 4 -12 1 -19z m-2043 3 c3 -5 -1 -12 -10 -15 -20 -8 -29 -1 -19 13 8 13
22 14 29 2z m-1072 -58 c9 -8 22 -12 27 -8 17 10 13 -12 -9 -54 -19 -37 -21
-39 -54 -31 -54 12 -129 100 -111 130 7 11 127 -19 147 -37z m-697 1 c8 -20
13 -40 10 -44 -3 -4 2 -13 10 -20 8 -7 15 -17 15 -22 0 -13 -42 -3 -100 24
-25 12 -65 28 -89 37 -25 9 -46 21 -48 27 -4 12 81 30 149 33 34 1 39 -2 53
-35z m1735 -6 c0 -19 -18 -43 -25 -36 -9 9 4 48 16 48 5 0 9 -6 9 -12z m-2114
-9 c8 -13 -15 -59 -39 -77 -9 -7 -29 -37 -44 -65 -14 -29 -37 -65 -51 -82 -14
-16 -36 -54 -48 -82 -13 -29 -26 -53 -29 -53 -3 0 -5 36 -5 79 0 89 -7 77 139
233 56 60 65 66 77 47z m5629 1 c3 -5 15 -10 27 -10 19 0 20 -4 14 -49 -3 -27
-15 -82 -26 -122 -11 -41 -20 -86 -20 -101 0 -15 -4 -37 -9 -50 -5 -13 -19
-61 -31 -108 -25 -92 -55 -160 -70 -160 -6 0 -10 9 -10 20 0 11 -7 20 -15 20
-19 0 -21 67 -3 105 8 19 8 31 -1 51 -9 21 -9 34 1 63 12 35 13 33 19 -62 3
-53 10 -102 16 -108 16 -16 26 24 19 75 -4 23 -1 75 5 116 6 41 12 89 13 105
1 17 10 45 19 62 10 18 20 53 24 78 10 77 -20 45 -52 -55 -28 -88 -30 -90 -60
-90 -35 0 -55 15 -55 42 0 10 -4 18 -10 18 -19 0 -10 36 14 57 13 11 25 26 27
31 4 12 127 80 146 81 6 1 15 -3 18 -9z m-5775 -14 l32 -13 -44 -51 c-23 -28
-46 -51 -50 -51 -14 -2 -9 117 5 122 19 8 23 8 57 -7z m290 -6 c22 -11 46 -20
55 -20 8 0 15 -3 15 -7 0 -10 58 -43 75 -43 8 0 40 -16 72 -35 32 -19 65 -35
73 -35 9 0 31 -36 56 -93 58 -129 65 -147 59 -157 -4 -7 -132 50 -288 130 -32
17 -65 30 -72 30 -8 0 -17 10 -21 23 -3 12 -18 47 -31 77 -14 30 -31 69 -39
87 -17 37 -18 63 -4 63 6 0 28 -9 50 -20z m2133 -29 c30 -27 34 -41 13 -41
-16 0 -76 65 -76 82 0 11 17 1 63 -41z m-191 -35 c3 -26 0 -36 -12 -39 -12 -3
-16 -21 -18 -83 -2 -43 -5 -104 -7 -134 -2 -30 -6 -103 -9 -162 -2 -59 -7
-112 -11 -118 -4 -6 -1 -17 5 -25 14 -17 9 -61 -8 -57 -6 1 -12 -5 -12 -13 0
-8 5 -15 11 -15 8 0 8 -4 2 -12 -18 -23 -22 -62 -13 -128 8 -55 7 -67 -8 -83
-14 -15 -16 -44 -17 -193 0 -159 -2 -176 -18 -186 -17 -9 -17 -11 -2 -35 16
-24 16 -26 -4 -47 -22 -23 -28 -46 -12 -46 4 0 6 -12 3 -26 -3 -18 1 -29 17
-40 11 -8 21 -20 21 -27 0 -8 -3 -8 -12 1 -20 20 -31 13 -25 -16 3 -15 2 -34
-4 -42 -6 -10 -9 -11 -9 -2 0 6 -4 12 -9 12 -5 0 -5 -18 1 -42 5 -24 7 -50 5
-60 -3 -9 3 -24 13 -33 11 -10 15 -25 12 -40 -8 -42 -22 -39 -22 4 0 23 -4 41
-10 41 -18 0 -11 -58 12 -97 l23 -38 6 42 c3 24 8 46 12 49 4 4 2 13 -5 21
-15 18 -2 29 17 13 8 -7 15 -9 15 -5 0 5 2 6 5 3 3 -3 0 -18 -6 -34 -6 -16
-19 -62 -29 -102 -10 -40 -23 -79 -28 -85 -5 -7 -12 -25 -15 -42 -3 -16 -10
-59 -17 -94 -6 -36 -26 -97 -44 -136 -18 -39 -36 -89 -40 -110 -8 -41 -31 -80
-77 -130 -34 -38 -150 -210 -168 -250 -8 -16 -30 -77 -50 -135 -24 -67 -52
-125 -78 -160 -23 -30 -62 -95 -88 -145 -26 -49 -51 -94 -56 -99 -17 -18 -9
43 12 102 12 31 27 75 35 97 8 22 23 60 33 85 11 25 35 97 55 162 19 64 49
149 66 190 18 41 37 112 45 163 7 50 18 103 24 118 6 16 11 43 11 61 0 37 33
182 54 236 25 65 46 176 76 399 6 47 18 101 25 120 16 43 32 132 45 258 6 51
17 118 25 148 8 31 17 109 20 173 4 64 13 133 20 153 8 20 17 65 20 100 4 35
13 81 21 102 8 20 14 50 14 66 0 29 21 108 46 171 7 19 25 78 39 130 14 52 30
104 35 115 5 11 12 30 15 43 9 33 22 27 27 -12z m238 -46 c-12 -22 -30 -18
-30 6 0 8 9 14 20 14 18 0 19 -3 10 -20z m-6046 -76 c9 -29 16 -58 16 -67 0
-8 7 -28 15 -43 8 -16 15 -36 15 -44 0 -8 9 -42 19 -75 10 -33 22 -94 26 -135
3 -41 12 -84 18 -95 22 -40 34 -140 51 -426 3 -41 10 -95 16 -120 6 -24 13
-120 15 -214 3 -93 7 -182 10 -197 4 -24 1 -28 -20 -28 -13 0 -44 6 -67 14
-24 8 -65 17 -93 21 -27 4 -57 11 -66 15 -16 9 -177 44 -299 65 -41 7 -93 20
-115 28 -51 19 -170 52 -260 72 -38 8 -106 26 -150 40 -196 60 -249 75 -264
75 -9 0 -24 7 -35 15 -10 7 -44 17 -75 20 -31 4 -71 16 -89 26 -18 10 -51 22
-73 25 -22 4 -42 11 -45 15 -3 5 -21 9 -40 9 -42 0 -46 22 -6 47 99 61 147 95
223 157 117 96 203 163 516 399 136 102 329 230 526 347 24 14 69 45 102 70
32 25 68 50 80 57 22 13 19 17 49 -73z m4774 73 c7 -8 7 -18 1 -27 -8 -13 -10
-13 -19 0 -21 32 -5 55 18 27z m1393 -100 c16 -22 18 -31 9 -42 -6 -8 -10 -18
-7 -22 5 -8 -26 -137 -57 -238 -8 -27 -26 -88 -41 -135 -14 -47 -32 -116 -40
-154 -8 -38 -21 -79 -30 -92 -8 -13 -18 -45 -21 -71 -6 -46 -30 -127 -44 -148
-4 -5 -10 -28 -14 -50 -7 -43 -35 -115 -45 -115 -11 0 -30 54 -28 78 1 15 6
21 15 17 10 -4 13 0 9 15 -3 13 1 21 13 25 19 6 33 62 18 71 -10 6 0 105 14
143 8 22 9 23 22 6 12 -17 13 -17 20 0 3 9 0 31 -9 47 -10 21 -12 36 -5 48 13
25 13 70 0 70 -6 0 -2 9 8 20 23 25 27 86 7 117 -19 28 -21 63 -3 45 7 -7 15
-12 18 -12 3 0 2 53 -3 118 -9 141 4 209 41 204 12 -2 22 2 22 7 0 6 -6 11
-14 11 -22 0 -28 16 -20 55 l6 35 28 -17 c16 -9 33 -27 39 -39 9 -20 13 -21
35 -11 23 10 23 12 7 15 -26 4 -37 20 -46 61 l-7 35 40 -35 c23 -19 51 -47 63
-62z m-111 52 c0 -5 -4 -9 -10 -9 -5 0 -10 7 -10 16 0 8 5 12 10 9 6 -3 10
-10 10 -16z m3022 -6 c10 -9 18 -21 18 -27 0 -5 16 -27 36 -47 l36 -37 -16
-49 c-8 -26 -15 -64 -15 -83 0 -19 -1 -42 -2 -50 -1 -8 1 -30 6 -49 l7 -34
-56 5 c-31 3 -62 10 -68 16 -17 17 -16 178 1 232 8 25 23 55 34 66 11 13 15
24 8 28 -17 11 -58 -56 -81 -132 -18 -58 -21 -86 -15 -137 l6 -63 -28 -6 c-16
-4 -58 -33 -94 -65 -62 -56 -65 -58 -94 -46 -16 7 -70 29 -120 48 -49 19 -89
39 -88 44 1 4 28 11 60 15 32 4 74 10 93 13 19 4 62 10 94 13 79 9 88 32 12
32 -58 0 -75 10 -51 30 8 7 15 20 15 30 0 17 139 110 166 110 15 0 29 19 20
27 -6 6 -27 -2 -90 -33 -61 -31 -34 -2 49 51 48 31 94 69 103 86 20 33 28 35
54 12z m-8707 -61 c-10 -10 -25 21 -24 48 1 23 2 22 15 -9 8 -18 12 -36 9 -39z
m655 24 c53 -7 105 -18 117 -24 12 -7 35 -12 51 -12 33 0 61 -25 46 -40 -7 -7
-30 -7 -65 0 -29 5 -99 17 -154 26 -55 9 -106 20 -115 25 -8 4 -23 10 -32 13
-10 3 -18 13 -18 22 0 14 7 15 38 10 20 -4 80 -13 132 -20z m7199 -46 c0 -24
0 -24 -14 -6 -16 21 -20 58 -8 70 9 9 21 -27 22 -64z m-63 -25 c-3 -12 2 -31
10 -44 20 -28 13 -36 -18 -21 -61 32 -79 83 -35 99 28 11 50 -6 43 -34z
m-7776 -13 c12 -10 28 -33 35 -52 7 -19 16 -43 20 -52 10 -25 -15 -23 -56 5
-30 20 -34 29 -37 70 -3 51 4 57 38 29z m640 -8 c99 -16 161 -30 195 -44 11
-5 26 -10 34 -12 14 -4 41 -70 41 -100 0 -21 -6 -22 -90 -2 -36 8 -115 25
-176 38 -61 13 -116 26 -121 29 -6 4 -13 24 -17 46 -3 22 -9 47 -13 57 -5 14
-2 16 23 11 16 -4 72 -14 124 -23z m3062 -60 c73 -36 144 -76 158 -89 14 -13
34 -25 45 -27 13 -2 28 -24 48 -71 15 -38 27 -72 25 -77 -2 -5 -23 3 -48 19
-25 15 -76 40 -115 55 -38 16 -90 39 -114 52 -24 13 -51 24 -61 24 -24 0 -36
18 -43 63 -3 20 -15 50 -26 66 -23 31 -27 51 -11 51 5 0 69 -30 142 -66z
m-6055 -12 c41 -38 54 -114 57 -342 3 -173 1 -186 -17 -207 -11 -13 -23 -23
-27 -23 -25 0 -54 200 -67 452 -8 157 -1 172 54 120z m7903 8 c0 -11 -4 -20
-10 -20 -5 0 -10 2 -10 4 0 2 -3 11 -6 20 -4 11 -1 16 10 16 9 0 16 -8 16 -20z
m-3507 -6 c37 -7 37 -7 20 -26 -17 -18 -65 -48 -78 -48 -3 0 -5 18 -5 40 0 43
1 44 63 34z m6307 -13 c0 -15 -55 -51 -89 -57 -17 -4 -34 -11 -37 -15 -10 -17
-34 -9 -34 11 0 14 11 22 43 31 23 6 56 17 72 24 37 17 45 18 45 6z m-6143
-18 c2 -6 -5 -14 -16 -18 -11 -3 -37 -23 -59 -43 -34 -31 -112 -90 -133 -100
-4 -2 -9 7 -12 19 -7 27 23 56 118 116 69 43 95 49 102 26z m-2161 -61 c17
-15 38 -46 47 -70 22 -54 21 -66 0 -57 -10 4 -25 8 -33 9 -15 3 -23 17 -54 89
-26 61 -10 73 40 29z m650 -16 c66 -13 136 -28 155 -34 19 -6 46 -14 61 -17
19 -4 30 -13 34 -31 4 -14 4 -28 0 -31 -8 -9 -189 28 -351 70 -43 11 -50 17
-53 40 -4 34 -2 34 154 3z m7451 8 c-3 -3 -12 -4 -19 -1 -8 3 -5 6 6 6 11 1
17 -2 13 -5z m-5937 -91 c-1 -10 -6 -30 -13 -45 -12 -27 -195 -223 -202 -216
-2 2 -5 20 -7 40 -2 39 20 70 110 153 97 89 112 98 112 68z m5889 -19 c20 -8
45 -19 56 -24 11 -4 32 -11 48 -14 31 -7 36 -24 10 -32 -45 -15 -76 -34 -104
-67 l-24 -27 -70 34 c-38 19 -106 49 -150 67 -44 18 -91 40 -105 48 -24 16
-22 16 50 22 140 10 251 8 289 -7z m630 6 c9 0 27 -9 41 -19 24 -19 24 -20 6
-40 -21 -24 -28 -101 -10 -108 14 -5 57 74 48 89 -7 11 13 28 34 28 6 0 12 -9
12 -20 0 -26 -27 -80 -40 -80 -6 0 -10 -6 -10 -13 0 -7 -9 -18 -20 -25 -16
-10 -24 -10 -43 2 -12 7 -64 21 -116 30 -127 23 -161 38 -154 67 10 36 54 67
103 74 25 3 52 11 60 16 8 5 28 7 44 4 16 -3 36 -5 45 -5z m-8857 -62 c33 -51
68 -151 68 -196 0 -12 4 -22 8 -22 9 0 38 -127 47 -205 4 -27 12 -81 20 -120
7 -38 18 -113 24 -165 6 -52 15 -135 21 -185 6 -49 12 -129 14 -176 2 -54 10
-97 20 -117 17 -32 25 -34 83 -17 18 6 33 72 33 145 0 59 -7 112 -41 305 -5
33 -9 78 -8 100 1 40 -22 197 -61 410 -32 178 -24 221 25 125 14 -27 29 -50
34 -50 4 0 16 -18 26 -41 10 -22 26 -46 34 -52 9 -7 25 -28 35 -47 11 -19 39
-57 63 -84 24 -26 43 -54 43 -60 0 -7 12 -23 26 -37 14 -13 44 -49 65 -79 21
-30 52 -74 69 -98 28 -40 29 -45 19 -87 -8 -33 -8 -53 1 -82 15 -46 66 -140
91 -168 10 -11 20 -42 23 -72 2 -29 7 -56 10 -61 3 -5 14 -44 26 -88 29 -110
83 -200 129 -215 30 -10 36 -9 48 7 8 11 17 30 20 43 8 34 -14 144 -44 220
-24 61 -52 160 -53 190 0 8 48 -35 108 -95 59 -60 124 -123 146 -140 35 -27
38 -32 27 -53 -9 -15 -10 -43 -5 -88 7 -72 17 -96 53 -133 44 -46 69 -140 37
-140 -14 0 -68 16 -101 30 -11 5 -33 11 -50 13 -67 11 -201 50 -216 63 -8 8
-22 14 -30 14 -9 0 -24 7 -35 15 -10 8 -30 15 -44 15 -25 1 -122 30 -156 48
-10 5 -32 15 -49 22 -16 7 -38 16 -47 21 -10 5 -35 9 -57 9 -22 0 -44 6 -51
15 -7 8 -18 14 -24 13 -16 -3 -86 25 -86 34 0 4 7 8 15 8 19 0 19 7 1 26 -20
19 -26 18 -26 -6 0 -11 -7 -20 -15 -20 -8 0 -15 4 -15 9 0 6 -8 10 -17 10 -10
0 -53 10 -96 23 -60 18 -76 26 -71 38 9 23 10 81 2 86 -5 3 -8 20 -8 37 0 18
-5 48 -10 67 -19 61 -22 92 -30 260 -5 91 -13 197 -19 235 -17 105 -38 279
-46 375 -4 47 -15 111 -26 142 -31 94 -26 100 23 26z m261 -30 c10 -14 17 -34
15 -44 -2 -15 -8 -10 -28 21 -33 53 -35 58 -19 53 7 -2 21 -16 32 -30z m2167
11 c0 -11 -95 -135 -139 -181 -25 -27 -54 -34 -85 -22 -9 3 -16 12 -16 18 0 7
39 53 86 104 76 81 90 92 120 92 19 0 34 -5 34 -11z m150 -10 c0 -19 -87 -124
-142 -171 -43 -37 -59 -45 -81 -41 -15 3 -27 8 -27 11 0 6 113 155 143 190 15
16 31 22 64 22 24 0 43 -5 43 -11z m-1740 -18 c30 -5 106 -20 167 -33 110 -22
113 -24 113 -50 0 -14 12 -59 26 -100 42 -121 44 -111 -12 -103 -27 4 -62 11
-79 16 -16 5 -70 20 -120 35 -49 14 -94 30 -99 35 -6 5 -20 9 -32 9 -18 0 -23
7 -29 39 -3 21 -17 65 -30 97 -13 32 -22 62 -19 66 3 4 17 5 32 3 15 -3 52 -9
82 -14z m1988 -6 c10 -9 -27 -52 -110 -129 -82 -77 -96 -86 -130 -86 -27 0
-38 4 -38 15 0 8 45 60 99 115 99 101 100 101 138 94 21 -4 39 -8 41 -9z
m5725 -21 c31 -12 82 -28 112 -35 30 -7 55 -16 55 -20 0 -18 -123 -129 -143
-129 -62 0 -327 117 -327 143 0 28 61 59 128 66 77 9 95 6 175 -25z m-5589 8
c2 -4 -19 -39 -47 -76 -29 -38 -58 -79 -64 -91 -7 -12 -19 -27 -25 -33 -19
-15 -128 -27 -128 -14 0 6 46 58 101 116 82 86 107 106 130 106 15 0 30 -4 33
-8z m1019 -47 c48 -21 103 -48 123 -61 19 -13 45 -24 58 -24 18 0 28 -9 40
-40 9 -22 16 -48 16 -56 0 -27 -63 -8 -185 55 -148 77 -153 81 -161 114 -3 16
-12 31 -20 34 -8 3 -14 10 -14 15 0 16 45 4 143 -37z m-973 -55 c0 -27 -6 -62
-12 -77 -15 -35 -88 -133 -98 -133 -4 0 -10 -9 -13 -21 -12 -44 -22 -8 -17 58
5 66 8 73 64 146 32 42 63 77 67 77 5 0 9 -22 9 -50z m5839 1 c17 -11 8 -40
-16 -47 -10 -3 -38 -14 -63 -25 -57 -25 -125 -30 -125 -9 0 8 13 21 30 30 16
8 34 20 40 27 23 28 105 42 134 24z m-3169 -21 c0 -5 -2 -10 -4 -10 -3 0 -8 5
-11 10 -3 6 -1 10 4 10 6 0 11 -4 11 -10z m-8180 -76 c0 -14 6 -37 14 -52 7
-15 30 -75 50 -134 20 -60 50 -128 66 -152 34 -49 42 -88 14 -65 -41 34 -86
126 -115 232 -17 62 -34 126 -40 143 -12 40 -12 67 1 59 6 -3 10 -17 10 -31z
m6708 -121 c30 -22 43 -53 23 -53 -16 0 -306 151 -315 164 -5 7 -6 21 -3 30 6
14 25 7 134 -50 71 -37 143 -78 161 -91z m1439 135 c-3 -8 -6 -5 -6 6 -1 11 2
17 5 13 3 -3 4 -12 1 -19z m-2617 -74 c0 -37 -134 -234 -159 -234 -15 0 -2 61
19 85 9 11 27 38 40 60 31 52 81 115 92 115 4 0 8 -11 8 -26z m-2078 -34 c46
-11 121 -31 168 -44 84 -23 84 -23 92 -61 11 -50 1 -58 -53 -46 -24 5 -70 15
-101 21 -32 6 -60 16 -63 21 -4 5 -18 9 -33 9 -15 0 -40 7 -56 15 -21 11 -32
12 -42 4 -10 -8 -15 -8 -17 2 -3 8 -9 30 -16 50 -6 19 -11 38 -11 42 0 12 47
7 132 -13z m4678 0 c0 -5 -4 -10 -10 -10 -5 0 -10 5 -10 10 0 6 5 10 10 10 6
0 10 -4 10 -10z m0 -40 c0 -5 -5 -10 -11 -10 -5 0 -7 5 -4 10 3 6 8 10 11 10
2 0 4 -4 4 -10z m-1541 -169 c47 -25 105 -54 128 -65 24 -12 43 -27 43 -33 0
-15 -21 -17 -35 -4 -6 5 -41 21 -80 36 -93 36 -214 95 -221 107 -3 5 -3 15 -1
23 6 15 26 8 166 -64z m1489 38 c-2 -5 -12 -3 -23 5 -17 13 -18 17 -5 25 16
11 35 -10 28 -30z m-4601 10 c27 -6 77 -19 113 -30 36 -11 72 -19 81 -19 9 0
29 -5 46 -10 25 -9 32 -19 42 -62 6 -28 9 -53 7 -55 -2 -3 -48 7 -103 20 -87
22 -133 32 -235 54 -23 4 -30 14 -43 56 -8 28 -15 52 -15 54 0 7 63 2 107 -8z
m2032 -81 c-15 -29 -92 -145 -119 -178 l-20 -25 0 40 c0 34 5 44 35 68 19 15
42 42 51 60 21 41 58 81 62 68 2 -5 -2 -20 -9 -33z m-4959 -1 c0 -2 -31 -27
-69 -56 -69 -52 -155 -89 -166 -71 -3 5 7 12 22 16 15 4 51 21 78 38 115 74
135 84 135 73z m5914 -6 c3 -5 18 -12 33 -15 59 -14 183 -69 205 -91 13 -12
32 -24 43 -26 16 -4 21 -15 27 -64 4 -32 4 -63 0 -67 -10 -10 -68 9 -104 34
-14 10 -31 18 -36 18 -8 0 -80 33 -181 84 -14 7 -20 24 -24 65 -2 31 -3 59 0
64 6 10 31 9 37 -2z m-2789 -127 c44 -14 91 -29 105 -33 18 -6 27 -19 37 -57
7 -27 13 -52 13 -56 0 -14 -53 -8 -109 12 -31 11 -65 21 -76 23 -11 2 -29 8
-40 14 -11 6 -26 8 -33 6 -7 -3 -25 3 -40 13 -15 10 -39 17 -53 16 -22 -2 -29
4 -38 29 -24 70 -21 73 72 65 45 -4 118 -18 162 -32z m2941 -136 c67 -34 129
-67 137 -73 10 -7 18 -36 23 -74 l7 -62 -29 7 c-16 4 -36 12 -44 18 -8 7 -42
21 -75 31 -33 11 -89 36 -125 55 l-65 35 -5 63 c-3 35 -3 66 0 68 9 10 58 -9
176 -68z m-2959 -32 c59 -19 128 -40 153 -48 l45 -13 3 -51 3 -51 -38 7 c-90
19 -210 52 -235 65 -14 8 -35 15 -46 15 -26 0 -62 49 -62 84 0 23 4 26 34 26
19 0 83 -15 143 -34z m1098 -46 c6 -10 -52 -70 -67 -70 -10 0 -11 64 -1 73 10
11 61 8 68 -3z m3255 -54 c0 -35 -15 -40 -16 -5 -1 16 3 29 7 29 5 0 9 -11 9
-24z m-3210 2 c0 -18 -106 -135 -115 -126 -10 9 12 45 57 94 41 45 58 54 58
32z m1668 2 c25 -13 79 -36 142 -59 30 -12 75 -34 100 -51 25 -16 51 -30 58
-30 20 0 14 -28 -16 -60 l-27 -31 -65 18 c-36 10 -102 38 -147 62 l-83 45 0
58 c0 59 6 66 38 48z m1469 -12 c-3 -8 -6 -5 -6 6 -1 11 2 17 5 13 3 -3 4 -12
1 -19z m3 -44 c0 -8 -4 -12 -10 -9 -5 3 -10 10 -10 16 0 5 5 9 10 9 6 0 10 -7
10 -16z m-4230 -24 c47 -16 96 -29 110 -30 39 0 70 -27 70 -60 0 -16 4 -31 9
-35 21 -12 62 -114 59 -144 l-3 -30 -65 50 c-35 28 -75 61 -88 75 -14 13 -29
24 -35 24 -6 0 -51 41 -99 90 -102 104 -98 109 42 60z m1078 -36 c-18 -26 -43
-62 -56 -80 -24 -36 -42 -44 -42 -19 0 21 30 65 44 65 6 0 22 18 36 40 14 22
31 40 38 40 8 0 0 -18 -20 -46z m286 7 c17 -26 -190 -261 -230 -261 -13 0 -24
4 -24 8 0 7 155 198 187 230 7 7 13 18 13 23 0 11 47 12 54 0z m186 -25 c0
-28 -151 -227 -181 -238 -10 -4 -19 -13 -19 -19 0 -12 -113 -9 -126 3 -8 8 93
143 160 213 50 53 52 54 109 55 42 0 57 -4 57 -14z m135 -13 c-9 -36 -162
-250 -191 -266 -10 -6 -47 -5 -72 2 -12 4 153 230 174 238 7 2 16 13 19 23 5
17 23 25 64 29 9 1 11 -6 6 -26z m341 -7 c-6 -32 -59 -164 -94 -236 -14 -28
-25 -36 -50 -38 -19 -2 -32 1 -32 8 0 18 65 144 99 190 16 23 35 57 41 76 16
47 45 47 36 0z m-96 8 c0 -20 -52 -130 -103 -216 -39 -68 -40 -68 -83 -68 -25
0 -44 5 -44 11 0 15 67 133 112 198 21 30 38 60 38 67 0 15 16 22 53 23 18 1
27 -4 27 -15z m147 -81 c-3 -32 -16 -83 -30 -113 -13 -30 -39 -92 -58 -137
-19 -46 -37 -83 -41 -83 -5 0 -8 19 -8 42 0 46 115 348 133 348 6 0 8 -22 4
-57z m728 -96 c17 -5 36 -12 43 -13 18 -5 7 -20 -40 -55 -63 -45 -78 -40 -78
24 0 59 6 71 29 61 9 -4 30 -11 46 -17z m-2564 -113 c14 -13 32 -24 40 -24 26
0 179 -104 179 -122 0 -15 -26 -8 -71 17 -24 13 -75 41 -114 61 -84 43 -105
61 -105 86 0 25 34 16 71 -18z m1840 -158 c-1 -54 3 -104 9 -116 10 -18 6 -22
-35 -40 -63 -27 -85 -26 -85 3 0 13 9 34 20 47 11 13 20 29 20 37 0 18 63 173
69 168 2 -3 3 -47 2 -99z m-1871 79 c14 -16 10 -18 -14 -9 -9 3 -16 10 -16 15
0 14 16 11 30 -6z m211 -101 c11 -14 10 -15 -11 -12 -13 1 -25 9 -28 16 -5 17
23 15 39 -4z m69 -24 c12 -8 9 -10 -12 -10 -15 0 -30 5 -33 10 -8 13 25 13 45
0z m-265 -27 c18 -14 18 -15 2 -9 -10 3 -25 6 -33 6 -8 0 -14 5 -14 10 0 15
22 12 45 -7z m4005 -107 c0 -7 -7 -19 -15 -26 -16 -13 -20 -3 -9 24 8 20 24
21 24 2z m-7404 -83 c-7 -70 -47 -237 -59 -249 -11 -11 -9 5 14 107 11 52 26
120 31 152 6 31 13 57 16 57 3 0 2 -30 -2 -67z m7326 -45 c-25 -47 -52 -73
-52 -50 0 9 68 102 75 102 2 0 -8 -23 -23 -52z m595 -45 c-4 -43 -8 -132 -9
-199 -3 -118 -4 -121 -35 -160 -17 -21 -69 -76 -115 -121 -207 -204 -298 -299
-367 -383 -41 -49 -76 -88 -79 -85 -2 2 21 54 52 114 31 61 56 116 56 124 0
29 122 258 177 333 33 43 78 108 102 143 23 35 62 87 85 115 24 28 56 76 71
106 27 53 53 90 63 90 2 0 2 -35 -1 -77z m-3912 41 c19 -16 19 -16 -5 -9 -31
9 -50 25 -29 25 7 0 23 -8 34 -16z m45 -516 c-17 -90 -39 -199 -49 -243 -11
-44 -24 -111 -31 -150 -7 -38 -25 -124 -41 -190 -16 -66 -42 -183 -58 -260
-35 -170 -83 -363 -88 -348 -5 13 6 73 56 323 22 113 48 241 56 285 9 44 40
179 70 300 29 121 56 236 60 255 16 84 49 212 53 202 2 -7 -10 -85 -28 -174z
m2969 -364 c-13 -53 -29 -80 -29 -49 0 20 32 106 38 101 2 -2 -2 -25 -9 -52z
m-644 -98 c43 -18 44 -23 3 -23 -33 0 -58 12 -58 28 0 13 16 11 55 -5z m466
-279 c-10 -9 -11 -8 -5 6 3 10 9 15 12 12 3 -3 0 -11 -7 -18z m-472 -669 c-12
-18 -48 -61 -78 -94 -31 -34 -61 -68 -68 -75 -7 -8 -18 -19 -25 -25 -7 -7 -26
-26 -41 -43 -29 -31 -47 -39 -47 -21 0 5 35 47 78 93 42 46 103 112 134 147
59 66 88 77 47 18z m-942 -105 c-3 -5 -35 -57 -71 -118 -64 -105 -93 -149
-133 -205 -10 -14 -43 -68 -74 -120 -31 -52 -74 -124 -96 -160 -22 -36 -53
-90 -69 -120 -29 -56 -69 -118 -127 -201 -17 -26 -52 -79 -77 -119 -25 -40
-58 -89 -73 -109 -16 -20 -47 -65 -68 -101 -71 -117 -143 -225 -194 -289 -27
-34 -59 -78 -70 -97 -45 -75 -110 -165 -113 -156 -5 17 55 183 94 257 20 39
47 90 59 115 100 200 269 478 355 584 74 93 101 130 146 201 47 76 103 153
171 232 29 34 62 81 73 103 11 23 31 51 43 63 12 12 39 42 60 67 109 130 153
179 160 179 5 1 6 -2 4 -6z m613 -252 c-38 -45 -60 -62 -60 -46 0 10 93 105
98 101 2 -3 -15 -28 -38 -55z m-401 -478 c-35 -52 -86 -119 -106 -141 -7 -7
-13 -17 -13 -21 0 -4 -20 -34 -45 -65 -25 -32 -45 -65 -45 -74 0 -9 -8 -25
-19 -36 -23 -26 -91 -124 -91 -132 0 -10 -53 -75 -57 -70 -9 9 147 257 226
361 26 33 53 70 61 81 39 56 115 152 118 149 2 -2 -11 -25 -29 -52z m-399
-587 c0 -16 -75 -114 -102 -134 -10 -7 -18 -17 -18 -22 0 -13 -69 -113 -141
-203 -14 -18 -34 -48 -46 -67 -11 -19 -44 -73 -73 -120 -29 -47 -65 -105 -79
-130 -22 -40 -72 -110 -187 -264 -20 -26 -40 -61 -44 -76 -5 -16 -30 -56 -57
-89 -129 -162 -205 -251 -214 -251 -6 0 7 21 28 48 64 78 207 273 249 340 21
34 71 112 109 171 39 60 96 151 129 203 142 227 165 261 225 340 36 46 78 99
95 119 17 20 49 62 70 93 39 56 56 68 56 42z"/>
<path d="M9210 12759 c0 -5 5 -7 10 -4 6 3 10 8 10 11 0 2 -4 4 -10 4 -5 0
-10 -5 -10 -11z"/>
<path d="M9211 12698 c-9 -14 -9 -24 -2 -31 7 -7 12 -1 17 17 8 34 2 41 -15
14z"/>
<path d="M9175 12579 c-11 -17 0 -20 21 -4 17 13 17 14 2 15 -9 0 -20 -5 -23
-11z"/>
<path d="M9220 12547 c-39 -22 -50 -32 -37 -35 20 -4 97 42 97 58 0 6 -1 9 -2
9 -2 -1 -28 -15 -58 -32z"/>
<path d="M11477 9963 c-14 -13 -6 -23 17 -23 13 0 26 7 30 15 4 11 -1 15 -18
15 -12 0 -26 -3 -29 -7z"/>
<path d="M9963 9073 c3 -21 9 -27 23 -25 27 5 28 8 5 31 -28 28 -32 26 -28 -6z"/>
<path d="M10125 9080 c-3 -5 -2 -10 4 -10 5 0 13 5 16 10 3 6 2 10 -4 10 -5 0
-13 -4 -16 -10z"/>
<path d="M10050 9070 c0 -5 5 -10 10 -10 6 0 10 5 10 10 0 6 -4 10 -10 10 -5
0 -10 -4 -10 -10z"/>
<path d="M9732 9058 c2 -5 7 -9 11 -9 4 1 14 1 22 1 26 0 16 15 -10 16 -15 1
-25 -2 -23 -8z"/>
<path d="M9480 9035 c0 -8 5 -15 10 -15 6 0 10 7 10 15 0 8 -4 15 -10 15 -5 0
-10 -7 -10 -15z"/>
<path d="M14974 10587 c-3 -8 0 -26 5 -40 9 -22 17 -27 46 -27 32 0 35 2 35
30 0 19 -7 33 -19 40 -27 14 -61 13 -67 -3z"/>
<path d="M15106 10494 c-20 -20 -20 -43 -1 -71 10 -14 22 -20 33 -16 42 15 57
74 23 93 -27 14 -37 13 -55 -6z"/>
<path d="M14541 10045 c-20 -52 -21 -55 -12 -55 12 0 34 56 28 72 -3 8 -9 0
-16 -17z"/>
<path d="M11205 7350 c4 -6 11 -8 16 -5 14 9 11 15 -7 15 -8 0 -12 -5 -9 -10z"/>
<path d="M11142 7272 c2 -11 -3 -26 -10 -35 -9 -10 -10 -17 -2 -22 5 -3 10 -2
10 3 0 6 11 13 25 16 29 7 32 23 8 42 -25 19 -35 17 -31 -4z"/>
<path d="M11073 7184 c-3 -8 -16 -20 -29 -25 -17 -6 -24 -16 -24 -34 0 -25 1
-25 24 -10 13 9 27 23 30 32 4 8 13 13 21 9 11 -4 15 2 15 19 0 28 -27 35 -37
9z"/>
<path d="M10977 7065 c-4 -8 -3 -16 1 -19 4 -3 9 4 9 15 2 23 -3 25 -10 4z"/>
<path d="M11015 7070 c-3 -5 1 -10 9 -10 9 0 16 5 16 10 0 6 -4 10 -9 10 -6 0
-13 -4 -16 -10z"/>
<path d="M10936 7001 c-4 -6 -3 -19 3 -28 9 -17 10 -17 17 0 8 21 -10 45 -20
28z"/>
<path d="M10896 6895 c-9 -26 -7 -32 5 -12 6 10 9 21 6 23 -2 3 -7 -2 -11 -11z"/>
<path d="M9720 5799 c0 -5 5 -7 10 -4 6 3 10 8 10 11 0 2 -4 4 -10 4 -5 0 -10
-5 -10 -11z"/>
<path d="M9861 5714 c0 -11 3 -14 6 -6 3 7 2 16 -1 19 -3 4 -6 -2 -5 -13z"/>
<path d="M10150 5701 c0 -5 5 -13 10 -16 6 -3 10 -2 10 4 0 5 -4 13 -10 16 -5
3 -10 2 -10 -4z"/>
<path d="M10690 5695 c-17 -20 -11 -25 18 -14 13 5 20 13 17 19 -9 14 -21 12
-35 -5z"/>
<path d="M10732 5660 c0 -14 2 -19 5 -12 2 6 2 18 0 25 -3 6 -5 1 -5 -13z"/>
<path d="M10647 5633 c-4 -3 -7 -11 -7 -17 0 -6 5 -5 12 2 6 6 9 14 7 17 -3 3
-9 2 -12 -2z"/>
<path d="M10170 5590 c0 -5 5 -10 10 -10 6 0 10 5 10 10 0 6 -4 10 -10 10 -5
0 -10 -4 -10 -10z"/>
<path d="M10760 5590 c0 -5 5 -10 10 -10 6 0 10 5 10 10 0 6 -4 10 -10 10 -5
0 -10 -4 -10 -10z"/>
<path d="M10790 5590 c0 -5 5 -10 10 -10 6 0 10 5 10 10 0 6 -4 10 -10 10 -5
0 -10 -4 -10 -10z"/>
<path d="M10253 5564 c-3 -8 -1 -25 5 -37 10 -20 11 -18 11 16 1 39 -5 48 -16
21z"/>
<path d="M10450 5540 c0 -5 5 -10 10 -10 6 0 10 5 10 10 0 6 -4 10 -10 10 -5
0 -10 -4 -10 -10z"/>
<path d="M10671 5518 c-1 -18 -26 -25 -35 -10 -3 5 -19 7 -36 4 -23 -3 -30 -9
-30 -26 0 -16 2 -18 9 -7 10 16 31 6 31 -14 0 -7 -6 -15 -12 -17 -9 -3 -8 -9
5 -22 9 -10 17 -13 17 -7 0 5 14 23 31 39 22 21 30 35 26 53 -2 14 -5 17 -6 7z"/>
<path d="M10405 5471 c-6 -11 9 -23 19 -14 9 9 7 23 -3 23 -6 0 -12 -4 -16 -9z"/>
<path d="M10335 5460 c3 -5 10 -10 16 -10 5 0 9 5 9 10 0 6 -7 10 -16 10 -8 0
-12 -4 -9 -10z"/>
<path d="M10440 5441 c0 -31 11 -51 27 -51 11 0 14 6 9 23 -3 12 -6 28 -6 35
0 6 -7 12 -15 12 -8 0 -15 -9 -15 -19z"/>
<path d="M14303 9325 c-13 -25 -25 -75 -18 -75 2 0 12 17 20 37 17 39 15 71
-2 38z"/>
<path d="M14884 8853 c-11 -37 -47 -102 -65 -119 -18 -16 -19 -16 -19 4 0 31
-17 36 -48 14 -48 -34 -132 -70 -139 -60 -6 12 -64 5 -105 -11 -47 -18 -159
-281 -120 -281 4 0 14 17 21 38 11 32 30 79 38 91 1 2 32 -7 68 -20 60 -21 67
-22 81 -7 20 20 10 38 -20 38 -35 0 -52 25 -29 42 10 7 32 30 50 50 37 44 43
36 35 -49 -6 -71 2 -77 58 -48 42 22 40 46 -2 39 l-33 -6 33 27 c38 32 41 45
7 45 -14 0 -25 4 -25 9 0 10 73 71 85 71 4 0 6 -38 4 -85 -2 -46 0 -86 4 -87
5 -2 17 20 26 47 10 28 43 95 75 150 31 55 56 106 56 112 0 20 -30 15 -36 -4z
m-337 -228 c-15 -14 -35 -25 -43 -25 -25 0 -12 33 16 41 48 14 56 9 27 -16z"/>
<path d="M11636 6973 c-3 -3 2 -19 10 -35 9 -16 13 -36 10 -43 -3 -8 2 -19 10
-25 12 -11 14 -5 14 36 0 37 -5 52 -19 61 -10 7 -21 9 -25 6z"/>
<path d="M12118 8553 c7 -3 16 -2 19 1 4 3 -2 6 -13 5 -11 0 -14 -3 -6 -6z"/>
<path d="M12028 8435 c5 -28 22 -24 22 6 0 10 -6 19 -14 19 -9 0 -12 -8 -8
-25z"/>
<path d="M12027 8309 c3 -10 9 -16 14 -13 13 8 11 21 -5 27 -10 4 -12 0 -9
-14z"/>
<path d="M4094 16668 c3 -13 11 -70 16 -127 9 -83 16 -113 38 -150 60 -101 88
-279 57 -361 -9 -25 -22 -64 -29 -88 -12 -43 -52 -90 -286 -332 -80 -82 -103
-124 -140 -250 -20 -64 -22 -89 -17 -178 5 -94 9 -108 37 -153 39 -59 111
-122 172 -148 87 -37 179 -103 194 -139 7 -19 23 -36 34 -39 11 -3 20 -11 20
-17 0 -7 12 -37 26 -67 28 -57 47 -117 59 -184 l8 -40 9 30 c9 31 20 195 18
277 -1 27 6 63 14 80 18 37 106 117 135 123 58 11 95 27 131 55 34 27 54 34
113 40 91 11 115 22 148 68 59 83 73 197 44 347 -19 103 -64 163 -177 239
-175 116 -184 136 -149 321 25 130 39 172 89 271 40 79 55 121 66 182 7 39 -9
35 -19 -5 -3 -16 -17 -42 -31 -60 -13 -17 -24 -35 -24 -38 0 -4 -15 -27 -32
-53 -18 -26 -40 -63 -49 -83 -9 -20 -29 -45 -44 -55 -15 -11 -62 -52 -103 -91
-41 -40 -78 -73 -82 -73 -4 0 -13 28 -20 63 -13 67 -60 215 -83 263 -8 16 -31
63 -52 105 -24 47 -38 89 -37 110 1 32 -45 179 -55 179 -3 0 -3 -10 1 -22z
m185 -715 c1 -7 -3 -13 -9 -13 -5 0 -10 15 -9 33 0 27 2 29 9 12 5 -11 9 -26
9 -32z m21 -149 c0 -19 5 -45 12 -57 11 -21 12 -20 24 18 13 39 14 39 9 -32
-3 -61 -1 -74 16 -89 10 -9 19 -23 19 -31 0 -19 9 -16 36 10 12 12 37 33 54
46 20 15 30 30 27 41 -3 12 29 -5 97 -50 55 -37 115 -74 132 -83 36 -19 96
-83 120 -128 12 -24 17 -62 18 -153 1 -113 -1 -124 -24 -161 -51 -84 -102 -98
-151 -42 l-29 32 0 -32 c0 -38 -12 -42 -35 -11 -13 20 -18 21 -37 9 -19 -12
-20 -11 -15 10 9 32 -17 85 -50 102 -38 20 -83 66 -83 86 0 9 13 43 29 76 16
33 39 85 51 115 22 57 35 156 21 164 -4 3 -18 -19 -30 -49 -30 -73 -57 -105
-87 -105 -14 0 -27 -7 -30 -15 -4 -8 -14 -15 -24 -15 -9 0 -29 -9 -44 -21 -38
-30 -56 -19 -56 36 0 25 -7 59 -15 75 -13 25 -13 37 -1 97 8 37 12 82 9 99 -3
18 0 35 6 38 6 4 11 18 11 32 0 13 5 24 10 24 6 0 10 -16 10 -36z m-198 -122
c-12 -9 -35 -44 -52 -77 -18 -33 -39 -67 -47 -77 -8 -9 -10 -18 -5 -22 6 -3
19 10 31 29 11 19 25 35 31 35 5 0 10 7 10 15 0 8 6 15 14 15 7 0 16 10 19 21
5 17 12 21 36 17 16 -2 28 -1 26 2 -3 4 4 15 15 25 19 17 20 17 20 -1 -1 -10
-7 -37 -15 -59 -8 -22 -15 -47 -15 -56 0 -18 -31 -49 -65 -64 -33 -14 -112
-89 -129 -123 -8 -15 -21 -61 -30 -102 -15 -78 -9 -129 25 -202 10 -24 10 -31
-4 -46 -10 -10 -17 -24 -17 -31 0 -7 -5 -9 -11 -5 -6 3 -8 17 -5 30 4 13 2 24
-3 24 -15 0 -19 -49 -5 -61 19 -16 17 -29 -3 -29 -40 1 -120 98 -134 162 -11
48 4 190 28 268 10 30 32 78 51 107 38 59 244 252 250 235 2 -7 -5 -20 -16
-30z m120 -200 c-2 -11 5 -38 14 -59 10 -21 23 -56 29 -77 12 -44 32 -58 41
-29 19 62 33 78 74 91 23 7 45 10 48 7 3 -3 -2 -27 -12 -54 -19 -53 -12 -113
18 -154 42 -57 76 -112 76 -123 0 -21 -42 -44 -80 -44 -40 0 -90 -39 -90 -70
0 -10 -8 -25 -18 -32 -11 -7 -30 -35 -43 -62 -26 -52 -57 -78 -44 -36 7 23
-12 100 -25 100 -25 0 -12 -115 14 -135 14 -11 19 -33 17 -70 -1 -17 -3 -18
-11 -5 -5 8 -10 25 -10 36 0 12 -7 27 -14 34 -8 6 -20 28 -27 48 -14 43 -45
87 -110 157 -134 146 -114 307 54 418 29 19 59 47 67 61 16 30 36 29 32 -2z
m-238 -547 c3 -9 0 -15 -9 -15 -16 0 -27 14 -18 24 10 10 21 7 27 -9z"/>
</g>
</svg>
